<svg id="Layer_1" data-name="Layer 1" xmlns="http://www.w3.org/2000/svg" fill="#888888" viewBox="0 0 140.78 200.52"><title>climate-neutral-stacked-black</title><path d="M99.54,175q0-3.27-3.42-3.27h-3.3v6.55h3.3Q99.54,178.23,99.54,175Z"/><polygon points="89.89 153.88 95.35 153.88 92.59 144.44 89.89 153.88"/><polygon points="109.86 182.36 115.32 182.36 112.56 172.91 109.86 182.36"/><path d="M60.1,39.45h76.68v90.07h-118v-54h-3v124h124V36.45H60.1Zm58.44,102.13a.8.8,0,0,1,.39-.7,1.55,1.55,0,0,1,.91-.26h9.79a.79.79,0,0,1,.72.38,1.64,1.64,0,0,1,.25.88,1.67,1.67,0,0,1-.26.94.83.83,0,0,1-.71.38h-8.17v6.3h4.24a.84.84,0,0,1,.7.35,1.38,1.38,0,0,1,.26.84,1.27,1.27,0,0,1-.25.78.82.82,0,0,1-.71.35h-4.24v6.32h8.17a.82.82,0,0,1,.71.39,1.67,1.67,0,0,1,.26.94,1.64,1.64,0,0,1-.25.88.81.81,0,0,1-.72.38h-9.79a1.62,1.62,0,0,1-.91-.26.8.8,0,0,1-.39-.7ZM101.25,141a.77.77,0,0,1,.71-.4h11.42a.8.8,0,0,1,.72.38,1.65,1.65,0,0,1,.25.92,1.82,1.82,0,0,1-.26,1,.81.81,0,0,1-.71.4h-4.23v16.46a.79.79,0,0,1-.44.7,2,2,0,0,1-1,.26,1.94,1.94,0,0,1-1-.26.78.78,0,0,1-.43-.7V143.31H102a.8.8,0,0,1-.7-.4,1.77,1.77,0,0,1-.26-1A1.71,1.71,0,0,1,101.25,141Zm-75.42,5.73a5.87,5.87,0,0,1,1.69-4.65,6.45,6.45,0,0,1,4.41-1.48A7,7,0,0,1,36.46,142a4.38,4.38,0,0,1,1.72,3.59,1.64,1.64,0,0,1-.33,1.19,1.62,1.62,0,0,1-1.13.32c-.95,0-1.44-.32-1.46-1q-.16-3-3.22-3c-2.2,0-3.3,1.19-3.3,3.55v8q0,3.56,3.36,3.55a4.17,4.17,0,0,0,1.65-.29,1.84,1.84,0,0,0,1-.84,5,5,0,0,0,.4-1,6.08,6.08,0,0,0,.16-1c.06-.64.54-1,1.43-1a1.68,1.68,0,0,1,1.15.31,1.61,1.61,0,0,1,.34,1.2,4.63,4.63,0,0,1-1.73,3.72,6.93,6.93,0,0,1-4.54,1.43,6.42,6.42,0,0,1-4.41-1.49,5.89,5.89,0,0,1-1.67-4.65Zm12.87,41.5a.8.8,0,0,1-.42.7,2,2,0,0,1-1,.26,1.87,1.87,0,0,1-1.74-1.07l-6.58-12.53v12.64a.8.8,0,0,1-.42.7,2.15,2.15,0,0,1-2.05,0,.79.79,0,0,1-.44-.7V170.06c0-.65.48-1,1.46-1a2,2,0,0,1,1.23.35,3.66,3.66,0,0,1,1,1.3l6.11,11.92V170a.75.75,0,0,1,.42-.7,2.35,2.35,0,0,1,2.07,0,.75.75,0,0,1,.42.7Zm3.95-46.7a.76.76,0,0,1,.42-.7,2.44,2.44,0,0,1,2.07,0,.76.76,0,0,1,.42.7v16.59h7.16a.74.74,0,0,1,.65.39,1.92,1.92,0,0,1,0,1.82.75.75,0,0,1-.65.38H43.94a1.62,1.62,0,0,1-.91-.26.79.79,0,0,1-.38-.7ZM49.82,178a.85.85,0,0,1,.71.35,1.33,1.33,0,0,1,.26.83,1.35,1.35,0,0,1-.25.79.83.83,0,0,1-.72.34H45.59v6.33h8.17a.8.8,0,0,1,.7.39,1.64,1.64,0,0,1,.26.93,1.54,1.54,0,0,1-.25.88.79.79,0,0,1-.71.39H44a1.62,1.62,0,0,1-.91-.26.83.83,0,0,1-.38-.7V170.06a.83.83,0,0,1,.38-.71,1.62,1.62,0,0,1,.91-.26h9.8a.79.79,0,0,1,.71.39,1.54,1.54,0,0,1,.25.88,1.62,1.62,0,0,1-.26.93.8.8,0,0,1-.7.39H45.59V178Zm8-36.43a.76.76,0,0,1,.42-.7,2.44,2.44,0,0,1,2.07,0,.76.76,0,0,1,.42.7v18.22a.79.79,0,0,1-.42.7,2.15,2.15,0,0,1-2,0,.77.77,0,0,1-.44-.7Zm12.62,41.69a5.81,5.81,0,0,1-1.72,4.65,6.76,6.76,0,0,1-4.58,1.48,6.74,6.74,0,0,1-4.56-1.48,5.84,5.84,0,0,1-1.71-4.65V170a.75.75,0,0,1,.42-.7,2.35,2.35,0,0,1,2.07,0,.75.75,0,0,1,.42.7v13.21a3.67,3.67,0,0,0,.88,2.67,3.4,3.4,0,0,0,2.48.88c2.26,0,3.38-1.19,3.38-3.55V170a.76.76,0,0,1,.43-.7,2.06,2.06,0,0,1,1-.24,2,2,0,0,1,1,.24.74.74,0,0,1,.43.7Zm2-29.86-3.69-7v13.38a.78.78,0,0,1-.43.7,2.15,2.15,0,0,1-2,0,.79.79,0,0,1-.44-.7v-17.7a1.4,1.4,0,0,1,.41-1.1,1.55,1.55,0,0,1,1-.35,2.3,2.3,0,0,1,1.31.34,3.42,3.42,0,0,1,1,1.31l3.85,7.29,3.91-7.29a3.52,3.52,0,0,1,1-1.31,2.22,2.22,0,0,1,1.3-.34,1.51,1.51,0,0,1,1,.35,1.37,1.37,0,0,1,.41,1.1v17.7a.79.79,0,0,1-.42.7,2.15,2.15,0,0,1-2,0,.77.77,0,0,1-.44-.7V146.56l-3.69,6.82a1.23,1.23,0,0,1-1.07.66A1.06,1.06,0,0,1,72.39,153.38Zm14.19,18a.8.8,0,0,1-.7.4H81.64v16.46a.8.8,0,0,1-.44.7,2,2,0,0,1-1,.26,1.94,1.94,0,0,1-1-.26.79.79,0,0,1-.43-.7V171.79H74.46a.81.81,0,0,1-.71-.4,1.77,1.77,0,0,1-.26-1,1.68,1.68,0,0,1,.25-.93.79.79,0,0,1,.72-.41H85.88a.79.79,0,0,1,.71.39,1.65,1.65,0,0,1,.25.92A1.82,1.82,0,0,1,86.58,171.39Zm1.52-11.27c-.13.41-.47.61-1,.61a2.29,2.29,0,0,1-1.23-.36,1,1,0,0,1-.58-.85.7.7,0,0,1,0-.24l5.46-17.84c.24-.66.89-1,2-1s1.75.31,2,.92l5.44,17.83a1,1,0,0,1,.06.26,1.06,1.06,0,0,1-.64.9,2.65,2.65,0,0,1-1.36.37q-.87,0-1.08-.6L96,156.19H89.23ZM102,188.82a1.83,1.83,0,0,1-1.19.47,1.3,1.3,0,0,1-1.16-.85l-4-7.9H92.82v7.7a.81.81,0,0,1-.42.71,2,2,0,0,1-1,.26,1.91,1.91,0,0,1-1-.26.81.81,0,0,1-.43-.7V170a.87.87,0,0,1,.28-.66.9.9,0,0,1,.69-.28h5.22q6.33,0,6.33,5.62a5.72,5.72,0,0,1-1,3.65,5,5,0,0,1-2.84,1.77l3.86,7.26a.84.84,0,0,1,.11.41A1.32,1.32,0,0,1,102,188.82Zm17.57,0a2.69,2.69,0,0,1-1.36.38q-.87,0-1.08-.6L116,184.67h-6.77l-1.12,3.93c-.13.41-.47.61-1,.61a2.26,2.26,0,0,1-1.23-.36,1,1,0,0,1-.58-.85.81.81,0,0,1,0-.25l5.46-17.83c.23-.66.89-1,2-1s1.75.3,2,.92l5.45,17.83a.9.9,0,0,1,.06.26A1.07,1.07,0,0,1,119.54,188.83Zm14,0a.73.73,0,0,1-.65.39h-8.78a1.62,1.62,0,0,1-.91-.26.83.83,0,0,1-.38-.7V170a.74.74,0,0,1,.43-.7,2,2,0,0,1,1-.24,2.09,2.09,0,0,1,1,.24.76.76,0,0,1,.43.7v16.59h7.15a.73.73,0,0,1,.65.39,1.9,1.9,0,0,1,0,1.81Z"/><path d="M36.94,23.48c-4.51.23-15.32.94-22.48,11.65s-3.23,16.33.78,23.55A89.56,89.56,0,0,1,26.68,99.73c.51,9.73,6.11,16.72,15.7,16.22S55.23,108.3,54.9,99.14s-10-15.79-12.17-21.36-2.47-16.76,0-19.51c11.74-13,9.63-18.46,8.35-24.46C49.17,24.88,42.38,23.2,36.94,23.48Z"/><path d="M42.22,17.23c2.76-.14,8.41-.72,8-8.56S44.53-.07,40.9.12c-4.22.22-7.37,1.26-7,8.52S39.46,17.38,42.22,17.23Z"/><path d="M27.47,19.31c5.63-1.72,4.7-8.62,2.58-12.08-.95-1.55-2.63-3.06-5.95-2.45s-5.68,2.77-4.72,7.38S24.61,20.18,27.47,19.31Z"/><path d="M18.9,25.29c1.4-1.1,2.12-4.69.29-8.47-1.3-2.69-4-4.74-7.3-3.26s-3.95,5.3-1.6,8.53S17.5,26.38,18.9,25.29Z"/><path d="M3.92,31.3c2,1.21,6.68,2.42,8.05.75s0-4.83-2-7.18C8.45,23.06,5,23,3.61,25.2S2,30.09,3.92,31.3Z"/><path d="M8.63,40.67c1.34-2.25-1.92-5.51-3.38-6.23-2.39-1.19-3.19.31-4,1.23s-1.55,3.72,0,4.95S7.29,42.92,8.63,40.67Z"/><polygon points="94.69 121.69 120.98 101.81 104.74 101.81 104.74 92.55 84.63 92.55 84.63 101.81 68.4 101.81 94.69 121.69"/><path d="M67.57,81.67a14.51,14.51,0,0,0,10.31-4.12.85.85,0,0,0,.05-1.14l-3.32-3.53a.85.85,0,0,0-1.1,0,9,9,0,0,1-5.69,2,8.69,8.69,0,0,1,0-17.37,8.68,8.68,0,0,1,5.73,2.17.74.74,0,0,0,1.06,0l3.31-3.44a.79.79,0,0,0,0-1.19A14.28,14.28,0,0,0,67.57,51.1a15.29,15.29,0,1,0,0,30.57Z"/><path d="M96.23,81.67A15.29,15.29,0,1,0,81,66.43,15.18,15.18,0,0,0,96.23,81.67Zm0-23.77a8.49,8.49,0,1,1-8.45,8.53A8.55,8.55,0,0,1,96.23,57.9Z"/><path d="M115.59,79.1v.6a.56.56,0,0,0,.57.56h11.9a.57.57,0,0,0,.56-.56V77a.57.57,0,0,0-.56-.56h-5.24c1.4-2,3.84-5.15,4.79-6.85a7.44,7.44,0,0,0,1.16-3.86c0-3.31-2.5-6-6.75-6a8.56,8.56,0,0,0-6,2.91.56.56,0,0,0,0,.78l1.81,1.84a.58.58,0,0,0,.84,0,4.25,4.25,0,0,1,2.88-1.49c1.67,0,2.62,1,2.62,2.14a4.46,4.46,0,0,1-.77,2.27C121.72,70.86,117.32,76.84,115.59,79.1Z"/><path d="M133.17,30.75A5.72,5.72,0,1,0,127.46,25,5.72,5.72,0,0,0,133.17,30.75Zm0-10.93A5.21,5.21,0,1,1,128,25,5.18,5.18,0,0,1,133.17,19.82Z"/><path d="M132.62,26.11h.71l.93,1.84h1.58l-1.2-2.19a1.92,1.92,0,0,0,.94-1.74,2,2,0,0,0-2.25-1.91h-2.16V28h1.45Zm0-2.66h.63c.56,0,.87.24.87.7s-.31.69-.87.69h-.63Z"/></svg>