<?xml version="1.0" encoding="UTF-8"?>
<svg width="177px" height="96px" viewBox="0 0 177 96" version="1.1" xmlns="http://www.w3.org/2000/svg" xmlns:xlink="http://www.w3.org/1999/xlink">
    <!-- Generator: Sketch 63.1 (92452) - https://sketch.com -->
    <title>fair-wear</title>
    <desc>Created with Sketch.</desc>
    <g id="fair-wear" stroke="none" stroke-width="1" fill="none" fill-rule="evenodd">
        <g id="Group-13" fill="#888888">
            <path d="M80.1068107,57.2407012 L76.0285728,57.2407012 L81.3755507,47.7313313 L80.1068107,57.2407012 M96.102408,53.4916972 L93.9952846,53.4916972 L96.3114964,46.7746748 L98.4179431,46.7746748 C99.7299894,46.7746748 100.49191,47.2124898 99.9411078,48.7778659 L98.9985185,51.4885061 C98.4477162,53.0538821 97.4144543,53.4916972 96.102408,53.4916972 M125.644089,27.3508028 L121.565174,27.3508028 L126.912152,17.8414329 L125.644089,27.3508028 M151.021595,23.6017988 L148.914472,23.6017988 L151.230684,16.8847764 L153.33713,16.8847764 C154.649177,16.8847764 155.411097,17.3232724 154.860295,18.8886484 L153.917706,21.5979268 C153.366904,23.1639837 152.333642,23.6017988 151.021595,23.6017988 M110.190497,13.5517988 C109.362264,13.5517988 108.791161,13.8963313 108.533353,14.6786789 L101.79313,34.1216159 C101.485926,34.9986077 101.898012,35.4677439 102.830452,35.4677439 L104.038969,35.4677439 C104.867879,35.4677439 105.438304,35.1238923 105.696112,34.3408638 L108.580043,26.1068089 L113.322762,26.1068089 C114.152349,26.1068089 114.722775,25.7629573 114.980583,24.979248 L115.228917,24.2595427 C115.535445,23.3825508 115.124711,22.9134146 114.191595,22.9134146 L109.690444,22.9134146 L111.763058,16.8847764 L118.029619,16.8847764 C118.857852,16.8847764 119.428954,16.5402439 119.687439,15.7572154 L119.98111,14.8979268 C120.287637,14.0216159 119.876227,13.5517988 118.943788,13.5517988 L110.190497,13.5517988 M119.822771,30.583689 L120.707167,30.583689 L124.277909,30.583689 L125.162306,30.583689 L124.66293,34.2155793 C124.562784,35.06125 124.964044,35.4677439 125.861297,35.4677439 L127.070491,35.4677439 C127.967744,35.4677439 128.498923,35.06125 128.599745,34.2155793 L130.621609,14.8039634 C130.714312,14.0216159 130.216966,13.5517988 129.353546,13.5517988 L127.164547,13.5517988 C126.370823,13.5517988 125.788217,13.8963313 125.388987,14.5533943 L113.99604,34.0283333 C113.491928,34.8733232 113.829582,35.4677439 114.83104,35.4677439 L115.936028,35.4677439 C116.730429,35.4677439 117.313034,35.1238923 117.684521,34.4348272 L119.822771,30.583689 M140.685593,13.5517988 C139.85736,13.5517988 139.286258,13.8963313 139.02845,14.6786789 L132.288226,34.1216159 C131.981022,34.9986077 132.393109,35.4677439 133.325548,35.4677439 L134.534065,35.4677439 C135.362975,35.4677439 135.933401,35.1238923 136.191209,34.3408638 L142.932109,14.8979268 C143.238637,14.0216159 142.827227,13.5517988 141.894787,13.5517988 L140.685593,13.5517988 M147.813544,26.7332317 L149.9545,26.7332317 C150.252908,27.240498 150.213662,28.9938008 150.296891,29.849685 C150.531016,32.2511992 150.851753,35.5399187 154.217467,35.5399187 L155.499063,35.5399187 L155.49568,35.5501321 C155.984906,35.5501321 156.499169,35.1729167 156.639238,34.7126321 L157.103427,33.1853862 C157.243496,32.7244207 156.958622,32.3472053 156.470072,32.3472053 L156.472779,32.3376728 L155.191182,32.3376728 C153.695761,32.3376728 154.119351,27.7525305 153.726211,26.2320935 C155.656725,25.5743496 156.997868,24.2595427 157.742872,22.099065 L159.102285,18.1859654 C160.265466,14.8666057 157.946547,13.5517988 154.630907,13.5517988 L149.658123,13.5517988 C148.829889,13.5517988 148.258787,13.8963313 148.000979,14.6786789 L141.260756,34.1216159 C140.953551,34.9986077 141.366315,35.4677439 142.298077,35.4677439 L143.506595,35.4677439 C144.335505,35.4677439 144.90593,35.1238923 145.163738,34.3408638 L147.813544,26.7332317 M63.102988,43.4416972 C62.2747545,43.4416972 61.7036524,43.7869106 61.4458444,44.5685772 L54.7049442,64.0115142 C54.3984166,64.8878252 54.8105033,65.3583232 55.742266,65.3583232 L63.4244021,65.3583232 C64.2526356,65.3583232 64.8237378,65.0137907 65.0815457,64.2314431 L65.3752168,63.3721545 C65.682421,62.4951626 65.2710109,62.0246646 64.3385716,62.0246646 L59.3854106,62.0246646 L61.5053906,55.9790041 L66.4314851,55.9790041 C67.2603952,55.9790041 67.8314974,55.6351524 68.0893054,54.852124 L68.3829764,53.9928354 C68.689504,53.1158435 68.2780939,52.6467073 67.3456546,52.6467073 L62.6604515,52.6467073 L64.6755489,46.7746748 L70.6727984,46.7746748 C71.5010318,46.7746748 72.072134,46.4308232 72.329942,45.6477947 L72.6242897,44.7871443 C72.9308172,43.9115142 72.5187305,43.4416972 71.5869678,43.4416972 L63.102988,43.4416972 M74.2861699,60.4735874 L75.1705663,60.4735874 L78.7413081,60.4735874 L79.6257045,60.4735874 L79.1263284,64.1054776 C79.0261825,64.9504675 79.4274427,65.3583232 80.3246957,65.3583232 L81.5338895,65.3583232 C82.4311424,65.3583232 82.9629982,64.9504675 83.0631441,64.1054776 L85.0850081,44.6938618 C85.1777107,43.9115142 84.6803647,43.4410163 83.8169448,43.4410163 L81.628622,43.4410163 C80.8342216,43.4410163 80.2516162,43.7869106 79.852386,44.4432927 L68.4594391,63.9182317 C67.9553264,64.7639024 68.2929804,65.3583232 69.2944392,65.3583232 L70.3994272,65.3583232 C71.1938276,65.3583232 71.776433,65.0137907 72.1479201,64.3240447 L74.2861699,60.4735874 M92.8943566,56.6231301 L95.0353131,56.6231301 C95.3337207,57.1310772 95.2944744,58.8830183 95.3777037,59.7402642 C95.6118285,62.1410976 95.932566,65.4298171 99.2982795,65.4298171 L100.579876,65.4298171 L100.577169,65.4407114 C101.065719,65.4407114 101.580658,65.062815 101.72005,64.6025305 L102.184917,63.0752846 C102.324986,62.615 102.039435,62.2377846 101.550885,62.2377846 L101.553592,62.2275711 L100.271995,62.2275711 C98.7765736,62.2275711 99.2001636,57.6431098 98.8070234,56.1219919 C100.737538,55.4649289 102.078681,54.1494411 102.824362,51.9889634 L104.183098,48.0758638 C105.346955,44.757185 103.02736,43.4416972 99.7123962,43.4416972 L94.7389354,43.4416972 C93.9107019,43.4416972 93.3395998,43.7869106 93.0817918,44.5692581 L86.3415682,64.0115142 C86.0350407,64.8885061 86.4471274,65.3583232 87.3788901,65.3583232 L88.5874072,65.3583232 C89.4163174,65.3583232 89.9867429,65.0137907 90.2452275,64.2314431 L92.8943566,56.6231301 M37.6260121,43.3674797 C36.8431149,43.3674797 36.2023166,43.8441057 36.0839009,44.6203252 L35.945862,45.3223272 L32.6383414,63.8937195 C32.4847392,64.7577744 32.9563722,65.4447967 33.779869,65.5571443 C33.8583617,65.5673577 33.9382078,65.5728049 34.0187305,65.5728049 C34.7826811,65.5728049 35.6156512,65.101626 36.105554,64.3683028 L43.5887518,53.4814837 L43.3593636,64.1619919 C43.3350038,64.9933638 43.9149025,65.5728049 44.7661425,65.5728049 L44.7864423,65.5728049 C45.6491855,65.5639533 46.5620017,64.966128 46.9991249,64.1231809 L56.7775578,45.2841972 L56.9981494,44.8436585 C57.438656,43.9986687 57.0874687,43.3674797 56.08601,43.3674797 L55.0845512,43.3674797 C54.2901508,43.3674797 53.6973954,43.7331199 53.3847779,44.4228659 L46.9145422,57.0255386 L47.7292425,46.4022256 C47.7522489,45.6096646 47.2258064,45.0411179 46.4286994,44.9941362 C46.3901297,44.9920935 46.35156,44.9907317 46.3129903,44.9907317 C45.5429497,44.9907317 44.7194528,45.4680386 44.2342867,46.1959146 L37.2978313,56.9533638 L39.7777951,44.9185569 C39.8075682,44.7919106 39.877941,44.4065244 39.8792943,44.2975813 C39.8867376,43.7031606 39.4753275,43.3674797 38.7167901,43.3674797 L37.6463119,43.3674797 L37.6260121,43.3674797 M106.905983,73 L19.2140571,73 L30.9500713,35.5344715 L92.9505195,35.5344715 L102.201157,6 L173.214057,6.00068089 L161.479396,43.4662093 L116.15662,43.4662093 L106.905983,73" id="Fill-1"></path>
            <path d="M174.8913,55.6036304 C174.816209,55.5795 174.717653,55.5560217 174.598312,55.5351522 C174.47763,55.5129783 174.347562,55.5025435 174.208107,55.5025435 C173.65163,55.5025435 173.117278,55.6466739 172.60505,55.9362391 C172.091482,56.2258043 171.613448,56.6288478 171.170278,57.1460217 L171.419687,55.6871087 L169.749584,55.6871087 L166.803607,65.6790652 L168.674175,65.6790652 L170.778062,58.5403696 C171.083118,58.1281957 171.43913,57.8079783 171.844755,57.5803696 C172.25038,57.3521087 172.699584,57.2386304 173.19438,57.2386304 L174.136368,57.2940652 L174.8913,55.6036304 Z M164.029937,57.6514565 C164.281357,58.1301522 164.302141,58.725587 164.092289,59.4371087 L164.021891,59.6764565 L159.284459,59.6764565 L159.279096,59.6301522 C159.608289,58.8573261 160.069562,58.2142826 160.662914,57.7023261 C161.257607,57.1897174 161.867721,56.933413 162.494596,56.933413 C163.266959,56.933413 163.778516,57.1727609 164.029937,57.6514565 L164.029937,57.6514565 Z M162.432243,65.5199348 C163.102698,65.2845 163.673925,64.9910217 164.145255,64.6375435 L163.762425,63.4531957 C163.323948,63.7616739 162.839209,64.0029783 162.30955,64.178413 C161.779891,64.3538478 161.199278,64.4418913 160.566368,64.4418913 C159.699471,64.4418913 159.116175,64.1327609 158.816482,63.5158043 C158.51813,62.8995 158.500028,62.1116739 158.762846,61.1536304 L158.805755,61.1079783 L165.469403,61.1079783 L165.803959,59.9718913 C166.204221,58.6173261 166.168687,57.5340652 165.700039,56.7214565 C165.230721,55.9088478 164.302812,55.5025435 162.916982,55.5025435 C161.726255,55.5025435 160.557653,55.9747174 159.407823,56.9203696 C158.259334,57.8647174 157.474903,59.048413 157.055868,60.4708043 L156.936528,60.8771087 C156.500732,62.3549348 156.569118,63.5568913 157.140346,64.4829783 C157.712914,65.4097174 158.713903,65.8727609 160.144653,65.8727609 C160.998141,65.8727609 161.761118,65.7553696 162.432243,65.5199348 L162.432243,65.5199348 Z M147.165323,60.8679783 C147.505243,59.7162391 147.995346,58.7803696 148.634959,58.0610217 C149.274573,57.3397174 150.042914,56.9797174 150.941323,56.9797174 C151.480368,56.9797174 151.904766,57.1016739 152.215857,57.3442826 C152.526948,57.5875435 152.742164,57.915587 152.861505,58.328413 L151.486403,62.9914565 C151.114971,63.4349348 150.703312,63.7799348 150.251425,64.0258043 C149.798198,64.2723261 149.293346,64.395587 148.736198,64.395587 C147.843823,64.395587 147.275948,64.0923261 147.029891,63.4858043 C146.785175,62.8792826 146.810653,62.0712391 147.109005,61.0616739 L147.165323,60.8679783 Z M145.238437,61.0616739 C144.814039,62.5023261 144.825437,63.6645 145.273971,64.5475435 C145.723175,65.4312391 146.573982,65.8727609 147.827062,65.8727609 C148.472709,65.8727609 149.073437,65.753413 149.631925,65.5127609 C150.189743,65.2727609 150.705993,64.9186304 151.180005,64.4510217 L151.035857,65.6790652 L152.563823,65.6790652 L156.810482,51.2725435 L154.940584,51.2725435 L153.321437,56.7671087 C153.113596,56.3549348 152.808539,56.0412391 152.407607,55.8253696 C152.005334,55.6101522 151.503834,55.5025435 150.903107,55.5025435 C149.629914,55.5025435 148.496846,55.995587 147.50055,56.9797174 C146.503584,57.9651522 145.768766,59.2610217 145.295425,60.8679783 L145.238437,61.0616739 Z M135.486675,63.953413 C135.278164,63.6951522 135.237937,63.345587 135.368675,62.903413 C135.515505,62.4064565 135.869505,61.9740652 136.430675,61.6049348 C136.991175,61.2364565 137.648221,61.0525435 138.401141,61.0525435 L140.500334,61.0525435 L140.02163,62.6731957 C139.729312,63.1088478 139.259993,63.4962391 138.617028,63.833413 C137.972721,64.1712391 137.311653,64.3401522 136.634493,64.3401522 C136.077346,64.3401522 135.695187,64.2110217 135.486675,63.953413 L135.486675,63.953413 Z M141.271357,65.6790652 C141.265323,65.3588478 141.292141,65.0327609 141.351812,64.7001522 C141.411482,64.3675435 141.493948,64.0231957 141.59988,63.6658043 L143.017891,58.8547174 C143.337698,57.7708043 143.227073,56.9412391 142.688698,56.3653696 C142.149653,55.7901522 141.297505,55.5025435 140.132255,55.5025435 C138.954937,55.5025435 137.906346,55.8038478 136.985141,56.4071087 C136.063266,57.0103696 135.514164,57.675587 135.338505,58.4021087 L135.341187,58.4575435 L137.125937,58.4575435 C137.24863,58.0388478 137.542959,57.6808043 138.006914,57.3821087 C138.472209,57.083413 139.005221,56.933413 139.606618,56.933413 C140.277073,56.933413 140.745721,57.1042826 141.012562,57.4460217 C141.278062,57.7877609 141.325664,58.2521087 141.153357,58.8358043 L140.86238,59.8238478 L138.830232,59.8238478 C137.46988,59.8238478 136.312675,60.0938478 135.359959,60.6318913 C134.405903,61.1712391 133.788414,61.9173261 133.507493,62.8721087 C133.231266,63.8073261 133.29563,64.5416739 133.699243,65.0745 C134.102187,65.6066739 134.838346,65.8727609 135.907721,65.8727609 C136.552698,65.8727609 137.20438,65.7116739 137.859414,65.3881957 C138.514448,65.0647174 139.087687,64.6636304 139.577118,64.1829783 C139.514096,64.4171087 139.466493,64.6492826 139.432971,64.8801522 C139.399448,65.1110217 139.370618,65.3777609 139.344471,65.6790652 L141.271357,65.6790652 Z M130.2578,57.6514565 C130.509221,58.1301522 130.530005,58.725587 130.320153,59.4371087 L130.249755,59.6764565 L125.512323,59.6764565 L125.506959,59.6301522 C125.835482,58.8573261 126.297425,58.2142826 126.890778,57.7023261 C127.485471,57.1897174 128.096255,56.933413 128.722459,56.933413 C129.494823,56.933413 130.00638,57.1727609 130.2578,57.6514565 L130.2578,57.6514565 Z M128.660107,65.5199348 C129.330562,65.2845 129.901118,64.9910217 130.372448,64.6375435 L129.989618,63.4531957 C129.551812,63.7616739 129.067073,64.0029783 128.537414,64.178413 C128.007755,64.3538478 127.427141,64.4418913 126.794232,64.4418913 C125.926664,64.4418913 125.344039,64.1327609 125.044346,63.5158043 C124.745323,62.8995 124.727891,62.1116739 124.990709,61.1536304 L125.032948,61.1079783 L131.697266,61.1079783 L132.031823,59.9718913 C132.432084,58.6173261 132.39588,57.5340652 131.927903,56.7214565 C131.458584,55.9088478 130.530675,55.5025435 129.144846,55.5025435 C127.954118,55.5025435 126.784846,55.9747174 125.635687,56.9203696 C124.487198,57.8647174 123.702766,59.048413 123.283732,60.4708043 L123.164391,60.8771087 C122.728596,62.3549348 122.796982,63.5568913 123.368209,64.4829783 C123.940778,65.4097174 124.941766,65.8727609 126.372516,65.8727609 C127.226005,65.8727609 127.988982,65.7553696 128.660107,65.5199348 L128.660107,65.5199348 Z M122.953198,51.2725435 L121.08263,51.2725435 L116.835971,65.6790652 L118.705868,65.6790652 L122.953198,51.2725435 Z" id="Fill-3"></path>
            <path d="M88.2140571,26.1852595 L86.7231172,26.1852595 L86.2804838,27.717496 L87.7714238,27.717496 L88.2140571,26.1852595 Z M79.2111513,23.5755752 C79.4570587,22.7248529 79.8444471,22.017924 80.3733164,21.4521134 C80.901512,20.8869716 81.5220072,20.6047352 82.2334543,20.6047352 C82.9496175,20.6047352 83.4117887,20.8869716 83.6192941,21.4521134 C83.8267996,22.017924 83.8079354,22.7248529 83.562028,23.5755752 L83.514194,23.7401017 C83.2655917,24.6001873 82.8768559,25.3104601 82.3466391,25.8709203 C81.8164223,26.4307116 81.1959272,26.7109417 80.48448,26.7109417 C79.7636008,26.7109417 79.3007559,26.4307116 79.0966191,25.8709203 C78.893156,25.3104601 78.9153887,24.6001873 79.163991,23.7401017 L79.2111513,23.5755752 Z M77.6723773,23.7441145 C77.3233909,24.9506421 77.3665089,25.941145 77.8017313,26.7149545 C78.23628,27.4880952 79.0184677,27.8753344 80.1482943,27.8753344 C81.2781209,27.8753344 82.2826358,27.4894329 83.1611653,26.7182986 C84.0396947,25.9478331 84.6534527,24.9559925 85.0037865,23.7441145 L85.0516205,23.5789192 C85.3999332,22.3723917 85.3574889,21.3805511 84.923614,20.6047352 C84.4890653,19.8282504 83.7048564,19.4403424 82.5696401,19.4403424 C81.4452032,19.4403424 80.4420357,19.829588 79.5614851,20.608748 C78.6809345,21.3872392 78.0671766,22.3770733 77.7202113,23.5789192 L77.6723773,23.7441145 Z M74.243148,24.2096041 C74.0174522,24.9907705 73.6138946,25.6027287 73.0318014,26.0461477 C72.4497083,26.4895666 71.7449983,26.7109417 70.9176715,26.7109417 C70.0856286,26.7109417 69.5183573,26.3785447 69.2165312,25.7130819 C68.9140314,25.047619 68.9066205,24.2169609 69.1942985,23.2211075 L69.7602224,21.2628411 C70.0452055,20.2770198 70.5302831,19.4517121 71.2168027,18.7862493 C71.9033222,18.1207865 72.6632772,17.7877207 73.49532,17.7877207 C74.3226469,17.7877207 74.8986765,18.0104334 75.2240828,18.4565276 C75.549489,18.9019529 75.6013653,19.5078919 75.3797118,20.2743446 L76.8100171,20.2743446 L76.8383133,20.2288657 C77.1718041,19.1427234 77.0660303,18.2699304 76.5196442,17.6111557 C75.9732582,16.9530498 75.077212,16.6239968 73.8315058,16.6239968 C72.5857995,16.6239968 71.4431722,17.0627341 70.4056451,17.9422151 C69.3674442,18.8203585 68.6533022,19.9339219 68.2645664,21.2808989 L67.7026848,23.2257892 C67.3132753,24.5727662 67.3846895,25.6843232 67.91558,26.5611289 C68.4471442,27.4372659 69.3357795,27.8753344 70.5814857,27.8753344 C71.8063067,27.8753344 72.893689,27.5282236 73.8402641,26.8346709 C74.7868392,26.1417871 75.398576,25.2817014 75.6754744,24.2550829 L75.6727796,24.2096041 L74.243148,24.2096041 Z M55.3015408,23.8043071 C55.5690072,22.8780096 55.9651539,22.1189139 56.4886335,21.5283574 C57.0121131,20.937801 57.6299133,20.6421883 58.3413605,20.6421883 C58.7752355,20.6421883 59.116811,20.7431782 59.3654133,20.9464955 C59.6146892,21.1491439 59.7851401,21.4233547 59.8774396,21.7684591 L58.7967945,25.5090958 C58.4929473,25.8796148 58.1601301,26.1665329 57.7990168,26.3691814 C57.4379034,26.5724987 57.0329984,26.6734885 56.5836279,26.6734885 C55.8728544,26.6734885 55.4147255,26.4253612 55.209915,25.9297753 C55.0051044,25.4341894 55.0199263,24.7780899 55.2564016,23.9621455 L55.3015408,23.8043071 Z M53.7654616,23.9621455 C53.4286022,25.1285447 53.443424,26.0728999 53.8106008,26.7938737 C54.1771039,27.5148475 54.862276,27.8753344 55.8661172,27.8753344 C56.3505211,27.8753344 56.8039339,27.7883895 57.2270294,27.6158373 C57.6501249,27.4432852 58.0449242,27.1871322 58.4107536,26.8460407 L58.145982,27.762306 C57.951951,28.4337881 57.642714,28.932718 57.2175974,29.2611022 C56.791807,29.5888175 56.216451,29.7526752 55.4901821,29.7526752 C55.1216578,29.7526752 54.7618919,29.7065276 54.4102106,29.6142322 C54.0592031,29.5212681 53.7708514,29.400214 53.5471767,29.2497325 L52.837077,30.3987426 C53.1314921,30.5840021 53.491258,30.7304708 53.9170484,30.8388175 C54.342165,30.9458266 54.7517861,31 55.145238,31 C56.2952762,31 57.2559993,30.7204387 58.0274075,30.161985 C58.7994894,29.6042001 59.3357696,28.8043071 59.6362483,27.762306 L61.9969593,19.590824 L60.8091929,19.590824 L60.3214204,20.6495452 C60.1718548,20.258962 59.9306634,19.9600054 59.5971726,19.7520064 C59.2636817,19.5440075 58.8372176,19.4403424 58.3177803,19.4403424 C57.3038334,19.4403424 56.3936391,19.8409577 55.5871976,20.6421883 C54.780756,21.4434189 54.1885571,22.4974585 53.8112745,23.8043071 L53.7654616,23.9621455 Z M46.0816974,19.590824 L43.7344607,27.717496 L45.224727,27.717496 L46.9366467,21.7911985 C47.2357779,21.4353933 47.5800483,21.1551632 47.9701315,20.9498395 C48.3595411,20.7451846 48.7691622,20.6421883 49.1976474,20.6421883 C49.7831091,20.6421883 50.1745398,20.7926699 50.3732869,21.0929642 C50.5706866,21.3932584 50.5666442,21.9015516 50.3598125,22.6178438 L48.8863893,27.717496 L50.3773292,27.717496 L51.8595108,22.5877475 C52.1687478,21.5163189 52.1559472,20.723114 51.8190877,20.2101391 C51.4835757,19.6971643 50.8738601,19.4403424 49.9912883,19.4403424 C49.4664613,19.4403424 48.9645407,19.55939 48.4848528,19.7974853 C48.0051649,20.0349117 47.5665739,20.3693151 47.1704272,20.8000268 L47.412966,19.590824 L46.0816974,19.590824 Z M44.361693,16 L42.8707531,16 L42.434857,17.5101659 L43.9251232,17.5101659 L44.361693,16 Z M43.3241659,19.590824 L41.8338997,19.590824 L39.4859893,27.717496 L40.9769292,27.717496 L43.3241659,19.590824 Z M34.968704,16 L33.477764,16 L30.0930002,27.717496 L31.5839401,27.717496 L33.3174189,21.7162921 C33.6293508,21.3859016 33.981032,21.1243981 34.3724627,20.9317817 C34.7638934,20.7384965 35.1661036,20.6421883 35.579767,20.6421883 C36.155123,20.6421883 36.5411639,20.802702 36.7385635,21.1230605 C36.9359632,21.4434189 36.9379843,21.9390048 36.7439533,22.6098181 L35.2685089,27.717496 L36.7587751,27.717496 L38.2301772,22.6252006 C38.5421091,21.54374 38.5306558,20.7425094 38.1944701,20.2215088 C37.8576107,19.7005083 37.2532848,19.4403424 36.3808188,19.4403424 C35.8815931,19.4403424 35.395168,19.5493579 34.9208699,19.767389 C34.4465718,19.9847512 34.0120231,20.2890583 33.6165501,20.6796415 L34.968704,16 Z M27.6622223,17.6298823 L27.0956247,19.590824 L25.7946735,19.590824 L25.4773519,20.6869984 L26.7789768,20.6869984 L25.3533876,25.6221241 C25.1290392,26.3979401 25.143861,26.9677635 25.3971793,27.3302568 C25.6504977,27.6934189 26.0796566,27.8753344 26.6853299,27.8753344 C26.9022674,27.8753344 27.1259421,27.8465757 27.3570277,27.7883895 C27.5881133,27.7315409 27.7720385,27.6573034 27.9088035,27.5670144 L28.0051453,26.5531033 C27.9155406,26.5831996 27.816504,26.6086142 27.7073615,26.6286784 C27.598219,26.6480738 27.5005298,26.6587747 27.4149675,26.6587747 C27.1522171,26.6587747 26.9642495,26.5805243 26.850391,26.4253612 C26.7365325,26.270198 26.7345114,26.0026752 26.8443276,25.6221241 L28.2692431,20.6869984 L29.8208177,20.6869984 L30.1374656,19.590824 L28.5865647,19.590824 L29.1524886,17.6298823 L27.6622223,17.6298823 Z M17.3388274,23.5755752 C17.5847348,22.7248529 17.9714495,22.017924 18.5003188,21.4521134 C19.0298619,20.8869716 19.6490096,20.6047352 20.3611305,20.6047352 C21.0772937,20.6047352 21.5387911,20.8869716 21.7462966,21.4521134 C21.953802,22.017924 21.9349379,22.7248529 21.6890304,23.5755752 L21.6418701,23.7401017 C21.3932678,24.6001873 21.0038583,25.3104601 20.4736415,25.8709203 C19.9440985,26.4307116 19.3236033,26.7109417 18.6121562,26.7109417 C17.8906032,26.7109417 17.428432,26.4307116 17.2242952,25.8709203 C17.0201584,25.3104601 17.0423911,24.6001873 17.2909934,23.7401017 L17.3388274,23.5755752 Z M15.7993797,23.7441145 C15.451067,24.9506421 15.494185,25.941145 15.9287337,26.7149545 C16.3639562,27.4880952 17.1461438,27.8753344 18.2752967,27.8753344 C19.4057971,27.8753344 20.4096382,27.4894329 21.2881677,26.7182986 C22.1666972,25.9478331 22.7811288,24.9559925 23.1307889,23.7441145 L23.178623,23.5789192 C23.5269356,22.3723917 23.4844914,21.3805511 23.0506164,20.6047352 C22.6167414,19.8282504 21.8318589,19.4403424 20.6973162,19.4403424 C19.5722056,19.4403424 18.5690382,19.829588 17.6884875,20.608748 C16.8079369,21.3872392 16.194179,22.3770733 15.8472137,23.5789192 L15.7993797,23.7441145 Z M15.6269077,16 L14.1359677,16 L10.7518776,27.717496 L12.2421438,27.717496 L15.6269077,16 Z M8.00108328,24.2096041 C7.77538745,24.9907705 7.37182982,25.6027287 6.78973668,26.0461477 C6.20764353,26.4895666 5.50293355,26.7109417 4.67628044,26.7109417 C3.84356387,26.7109417 3.27629254,26.3785447 2.97446647,25.7130819 C2.67196668,25.047619 2.66522949,24.2169609 2.95290746,23.2211075 L3.51883135,21.2628411 C3.80314073,20.2770198 4.28889207,19.4517121 4.97541164,18.7862493 C5.66193121,18.1207865 6.42121243,17.7877207 7.25392901,17.7877207 C8.08058211,17.7877207 8.6572855,18.0104334 8.98201802,18.4565276 C9.30742426,18.9019529 9.35930061,19.5078919 9.13832081,20.2743446 L10.5679523,20.2743446 L10.5962485,20.2288657 C10.9304131,19.1427234 10.8239655,18.2699304 10.2775795,17.6111557 C9.73186717,16.9530498 8.83582102,16.6239968 7.59011474,16.6239968 C6.34373475,16.6239968 5.2017812,17.0627341 4.16358035,17.9422151 C3.1253795,18.8203585 2.41191117,19.9339219 2.02250164,21.2808989 L1.46062007,23.2257892 C1.07188426,24.5727662 1.14262474,25.6843232 1.67418896,26.5611289 C2.20507947,27.4372659 3.09371472,27.8753344 4.33942099,27.8753344 C5.56558941,27.8753344 6.6516243,27.5282236 7.59887309,26.8346709 C8.54544816,26.1417871 9.15718494,25.2817014 9.43340969,24.2550829 L9.43138854,24.2096041 L8.00108328,24.2096041 Z" id="Fill-6"></path>
            <path d="M96.2140571,0 L94.7265215,0 L91.3479596,11.8411715 L92.8361677,11.8411715 L96.2140571,0 Z M84.212227,10.4225289 C84.0461233,10.210307 84.015189,9.92306393 84.1187517,9.55944804 C84.2350915,9.15122501 84.5168625,8.79504365 84.9633921,8.4922557 C85.4092493,8.18946776 85.9324422,8.03807378 86.5316259,8.03807378 L88.2007323,8.03807378 L87.8201061,9.37020558 C87.5874265,9.7290904 87.2148701,10.0467474 86.7024369,10.3238524 C86.1900038,10.6016333 85.6647934,10.7401859 85.1261334,10.7401859 C84.6829661,10.7401859 84.3783307,10.6340749 84.212227,10.4225289 L84.212227,10.4225289 Z M88.8147106,11.8411715 C88.8093308,11.5775838 88.8301778,11.309265 88.8779242,11.0362152 C88.9256706,10.7631653 88.991574,10.4799775 89.0756346,10.1859758 L90.203391,6.23148409 C90.4569177,5.34069276 90.3701672,4.65941988 89.9411221,4.18631371 C89.5127495,3.71320755 88.8348852,3.47665446 87.9082016,3.47665446 C86.9721032,3.47665446 86.1368775,3.72469727 85.4038695,4.22010701 C84.6708614,4.71619262 84.234419,5.26296818 84.0945422,5.85975781 L84.0965597,5.90504083 L85.5161744,5.90504083 C85.6143571,5.56102506 85.8483817,5.26634751 86.2175756,5.02100817 C86.5874421,4.77566883 87.0111073,4.65266122 87.4899162,4.65266122 C88.0231964,4.65266122 88.3964253,4.79324134 88.6075854,5.07440158 C88.8200905,5.35488595 88.8570771,5.73539848 88.7192178,6.21661504 L88.4885557,7.02833005 L86.8725755,7.02833005 C85.7898755,7.02833005 84.8692443,7.25001408 84.1113543,7.69270628 C83.3527919,8.13539848 82.8618782,8.74908476 82.6379409,9.53308927 C82.4187109,10.3029006 82.4691473,10.905773 82.7899224,11.3437342 C83.1106974,11.7816953 83.6964314,12 84.5477967,12 C85.0609024,12 85.5787154,11.8675303 86.0998909,11.601915 C86.6210663,11.3362996 87.0770108,11.0058012 87.4663793,10.6110955 C87.4166154,10.8037173 87.3782838,10.9943115 87.3520569,11.1842298 C87.3251576,11.3741481 87.3022931,11.5931287 87.2814461,11.8411715 L88.8147106,11.8411715 Z M79.8323357,1.64708533 L79.2674488,3.62804844 L77.9682088,3.62804844 L77.6521411,4.7364686 L78.9513811,4.7364686 L77.528404,9.7230076 C77.3044666,10.507688 77.3192613,11.0828499 77.5721154,11.4498451 C77.8242971,11.8168403 78.2533422,12 78.8572332,12 C79.0737732,12 79.2970381,11.9709378 79.5277003,11.9128133 C79.7583624,11.8546888 79.9419507,11.7803436 80.0791375,11.6891017 L80.1746303,10.6644889 C80.0858624,10.6949028 79.9863347,10.7199099 79.8773922,10.7401859 C79.7684497,10.7604618 79.6716119,10.7705998 79.5855339,10.7705998 C79.3239375,10.7705998 79.1363143,10.6921994 79.0219919,10.5353985 C78.9083421,10.3785976 78.9063246,10.1075753 79.0159396,9.7230076 L80.4389167,4.7364686 L81.9869759,4.7364686 L82.3030436,3.62804844 L80.7549844,3.62804844 L81.3205438,1.64708533 L79.8323357,1.64708533 Z M69.5365986,3.62804844 L67.1936628,11.8411715 L68.6811984,11.8411715 L70.3899814,5.85232329 C70.6885645,5.4927626 71.0328766,5.20957477 71.4215726,5.00208392 C71.8102686,4.79459307 72.2191392,4.69050972 72.6468393,4.69050972 C73.2312283,4.69050972 73.6219417,4.84257956 73.8196522,5.14604337 C74.0173626,5.44950718 74.0133277,5.96316531 73.806875,6.68701774 L72.3368239,11.8411715 L73.8243596,11.8411715 L75.3031529,6.65660377 C75.6124957,5.57386652 75.599046,4.77296536 75.2634763,4.25457618 C74.928579,3.73551112 74.3199806,3.47665446 73.439026,3.47665446 C72.9151606,3.47665446 72.4141596,3.59628274 71.9353507,3.83689102 C71.4565418,4.0774993 71.0187544,4.41475641 70.622661,4.85001408 L70.8661004,3.62804844 L69.5365986,3.62804844 Z M64.9865688,5.2426922 C65.1862967,5.63604618 65.2031088,6.12537313 65.0363326,6.71067305 L64.979844,6.90735004 L61.211241,6.90735004 L61.2072061,6.86950155 C61.4688026,6.23418755 61.8359791,5.70566038 62.3087357,5.28459589 C62.7814923,4.8635314 63.267026,4.65266122 63.765337,4.65266122 C64.3799878,4.65266122 64.7868409,4.84933821 64.9865688,5.2426922 L64.9865688,5.2426922 Z M63.7155732,11.7100535 C64.2488533,11.5167558 64.7034528,11.2747958 65.0780267,10.9841735 L64.7740637,10.0116024 C64.4250443,10.2650521 64.0397107,10.4630808 63.6187354,10.6077161 C63.1970877,10.7516756 62.7350908,10.8239932 62.2314,10.8239932 C61.5414309,10.8239932 61.0774166,10.5705435 60.8400296,10.0629682 C60.6019701,9.55606871 60.587848,8.90858913 60.7969906,8.12188116 L60.8306148,8.0833568 L66.1324823,8.0833568 L66.3987862,7.14998592 C66.7161988,6.03683469 66.688627,5.14604337 66.3153981,4.47828781 C65.9414967,3.81053224 65.2037813,3.47665446 64.1009068,3.47665446 C63.1547211,3.47665446 62.2240026,3.86460152 61.3100963,4.6411715 C60.3961899,5.41841735 59.7727968,6.39098845 59.4392445,7.56023655 L59.3437517,7.89411433 C58.9974222,9.10864545 59.0518934,10.0960856 59.5064929,10.8577865 C59.9617649,11.6194875 60.7579865,12 61.8958302,12 C62.575712,12 63.182293,11.9033512 63.7155732,11.7100535 L63.7155732,11.7100535 Z M51.6384248,3.62804844 L49.2948164,11.8411715 L50.7830245,11.8411715 L52.4918076,5.85232329 C52.7903907,5.4927626 53.1340302,5.20957477 53.5233987,5.00208392 C53.9120947,4.79459307 54.3209653,4.69050972 54.7486654,4.69050972 C55.3323819,4.69050972 55.7237679,4.84257956 55.9214783,5.14604337 C56.1191887,5.44950718 56.1151538,5.96316531 55.9087011,6.68701774 L54.4379776,11.8411715 L55.9261857,11.8411715 L57.4056515,6.65660377 C57.7143219,5.57386652 57.7008722,4.77296536 57.3653024,4.25457618 C57.0304052,3.73551112 56.4218067,3.47665446 55.5408521,3.47665446 C55.0169867,3.47665446 54.5159858,3.59628274 54.0371768,3.83689102 C53.5576954,4.0774993 53.1205805,4.41475641 52.7244872,4.85001408 L52.9672541,3.62804844 L51.6384248,3.62804844 Z M49.9208995,0 L48.4333638,0 L47.9982664,1.52542946 L49.485802,1.52542946 L49.9208995,0 Z M48.8859459,3.62804844 L47.3984103,3.62804844 L45.0548019,11.8411715 L46.54301,11.8411715 L48.8859459,3.62804844 Z M42.5074308,1.64708533 L41.9418714,3.62804844 L40.6433039,3.62804844 L40.3272362,4.7364686 L41.6258037,4.7364686 L40.2028265,9.7230076 C39.9795617,10.507688 39.9936839,11.0828499 40.246538,11.4498451 C40.4993922,11.8168403 40.9284373,12 41.5323283,12 C41.7488683,12 41.9721332,11.9709378 42.2027953,11.9128133 C42.4334575,11.8546888 42.6170458,11.7803436 42.7535601,11.6891017 L42.8497254,10.6644889 C42.7602849,10.6949028 42.6614297,10.7199099 42.5524872,10.7401859 C42.4435448,10.7604618 42.3460345,10.7705998 42.260629,10.7705998 C41.9983601,10.7705998 41.8114094,10.6921994 41.697087,10.5353985 C41.5834371,10.3785976 41.5814197,10.1075753 41.6910347,9.7230076 L43.1140118,4.7364686 L44.662071,4.7364686 L44.9781387,3.62804844 L43.4300795,3.62804844 L43.9949664,1.64708533 L42.5074308,1.64708533 Z M32.2116937,3.62804844 L29.8680854,11.8411715 L31.3562935,11.8411715 L33.0650765,5.85232329 C33.3636596,5.4927626 33.7072992,5.20957477 34.0966677,5.00208392 C34.4853637,4.79459307 34.8935617,4.69050972 35.3219343,4.69050972 C35.9056509,4.69050972 36.2970368,4.84257956 36.4947472,5.14604337 C36.6924577,5.44950718 36.6884228,5.96316531 36.48197,6.68701774 L35.0112465,11.8411715 L36.4994546,11.8411715 L37.978248,6.65660377 C38.2869183,5.57386652 38.2741411,4.77296536 37.9385714,4.25457618 C37.6036741,3.73551112 36.9950757,3.47665446 36.114121,3.47665446 C35.5902556,3.47665446 35.0885822,3.59628274 34.6104458,3.83689102 C34.1309644,4.0774993 33.6938495,4.41475641 33.2977561,4.85001408 L33.540523,3.62804844 L32.2116937,3.62804844 Z M22.9482203,7.65485779 C23.1930046,6.79583216 23.5796832,6.08076598 24.1075835,5.50965925 C24.6354838,4.93855252 25.2541695,4.65266122 25.9643131,4.65266122 C26.6798366,4.65266122 27.1404884,4.93855252 27.3476136,5.50965925 C27.5547388,6.08076598 27.5359093,6.79583216 27.2904525,7.65485779 L27.2427061,7.82179668 C26.9952318,8.69096029 26.6065358,9.40872994 26.0772905,9.97442974 C25.5480452,10.5408054 24.9293595,10.8239932 24.2192159,10.8239932 C23.4989851,10.8239932 23.0369883,10.5408054 22.8338979,9.97442974 C22.6301352,9.40872994 22.6523271,8.69096029 22.9004739,7.82179668 L22.9482203,7.65485779 Z M21.4115933,7.82585187 C21.0639188,9.04511405 21.1062854,10.0453957 21.5407103,10.8273726 C21.9744628,11.6093495 22.7558897,12 23.8829737,12 C25.0114026,12 26.0134045,11.6107012 26.8903242,10.8314278 C27.7672439,10.0521543 28.3805498,9.05052098 28.7295692,7.82585187 L28.7773156,7.65891298 C29.1249901,6.43897494 29.0826235,5.43734159 28.6495435,4.65266122 C28.2164636,3.86865672 27.4330192,3.47665446 26.3005553,3.47665446 C25.1775063,3.47665446 24.1761769,3.87000845 23.2972397,4.65671642 C22.4183025,5.44342439 21.8056692,6.44438186 21.4593397,7.65891298 L21.4115933,7.82585187 Z M17.9886474,8.29625458 C17.7633651,9.08566601 17.3605469,9.70408336 16.7795204,10.1521825 C16.1984938,10.5996057 15.495075,10.8239932 14.6692641,10.8239932 C13.8387458,10.8239932 13.2725139,10.487412 12.9712409,9.81492537 C12.6692953,9.14243875 12.661898,8.3036891 12.9497214,7.2973247 L13.5139358,5.31771332 C13.7983968,4.32216277 14.2832581,3.48746832 14.9685197,2.81565756 C15.6537814,2.14249507 16.4116714,1.80658969 17.2421897,1.80658969 C18.0680006,1.80658969 18.6429748,2.03165306 18.9677848,2.48177978 C19.2925948,2.93258237 19.3443761,3.54491692 19.1231287,4.31878344 L20.5508132,4.31878344 L20.5790576,4.27350042 C20.9119374,3.17521825 20.8063573,2.29388905 20.2616449,1.62816108 C19.71626,0.962433117 18.8218557,0.629907068 17.5777594,0.629907068 C16.3343356,0.629907068 15.193802,1.073951 14.1581759,1.96203886 C13.1218774,2.85012672 12.4090439,3.97476767 12.0210203,5.3359617 L11.4601683,7.30205576 C11.0721448,8.66324979 11.1427556,9.786539 11.6733459,10.6719234 C12.2032636,11.5573078 13.0902706,12 14.3336944,12 C15.5576161,12 16.641661,11.6499014 17.5871742,10.9490284 C18.5320149,10.2481554 19.1426308,9.37899183 19.4183494,8.3415376 L19.4163319,8.29625458 L17.9886474,8.29625458 Z" id="Fill-8"></path>
            <path d="M172.103855,92.3674 L170.927728,92.3674 L170.57693,93.5627333 L171.754416,93.5627333 L172.103855,92.3674 Z M172.026353,87.1700667 C171.978084,87.1547333 171.917578,87.1400667 171.841436,87.1260667 C171.765293,87.1127333 171.683712,87.1054 171.596013,87.1054 C171.245894,87.1054 170.909373,87.1974 170.587127,87.3807333 C170.264203,87.5647333 169.963712,87.8207333 169.684297,88.1487333 L169.841341,87.2227333 L168.789626,87.2227333 L166.935697,93.5627333 L168.113183,93.5627333 L169.437515,89.0334 C169.62923,88.7707333 169.852898,88.5687333 170.108519,88.4240667 C170.36346,88.2794 170.646954,88.2074 170.957641,88.2074 L171.551143,88.2420667 L172.026353,87.1700667 Z M161.385467,92.4674 C161.254258,92.3040667 161.229784,92.0820667 161.311365,91.8014 C161.404503,91.4860667 161.626811,91.2114 161.979649,90.9774 C162.332487,90.7434 162.746511,90.6274 163.221041,90.6274 L164.541293,90.6274 L164.240803,91.6554 C164.055886,91.9320667 163.761515,92.1774 163.355649,92.3914 C162.950463,92.6054 162.53576,92.7127333 162.108819,92.7127333 C161.758021,92.7127333 161.518037,92.6314 161.385467,92.4674 L161.385467,92.4674 Z M165.02806,93.5627333 C165.022622,93.3594 165.039618,93.1527333 165.077009,92.9414 C165.11576,92.7307333 165.166748,92.5120667 165.234052,92.2854 L166.126005,89.2327333 C166.327238,88.5454 166.257894,88.0187333 165.918653,87.6534 C165.578732,87.2880667 165.043017,87.1054 164.310147,87.1054 C163.56912,87.1054 162.908993,87.2967333 162.328408,87.6800667 C161.749183,88.0627333 161.403823,88.4847333 161.293009,88.9454 L161.294369,88.9807333 L162.417467,88.9807333 C162.494969,88.7147333 162.680566,88.4874 162.972218,88.2980667 C163.26455,88.1087333 163.600392,88.0140667 163.978384,88.0140667 C164.400566,88.0140667 164.696297,88.1220667 164.864218,88.3387333 C165.032139,88.5560667 165.061373,88.8500667 164.951918,89.2207333 L164.769041,89.8480667 L163.490258,89.8480667 C162.633657,89.8480667 161.905546,90.0187333 161.305926,90.3607333 C160.705626,90.7020667 160.317436,91.1760667 160.140677,91.7814 C159.966637,92.3754 160.006748,92.8407333 160.260329,93.1787333 C160.51459,93.5167333 160.978242,93.6854 161.651286,93.6854 C162.057831,93.6854 162.466416,93.5834 162.87976,93.3780667 C163.291744,93.1727333 163.65206,92.9180667 163.960029,92.6134 C163.920598,92.7620667 163.890685,92.9087333 163.87029,93.0560667 C163.848535,93.2020667 163.830179,93.3714 163.814543,93.5627333 L165.02806,93.5627333 Z M158.095712,88.4694 C158.252756,88.7720667 158.266353,89.1507333 158.133784,89.6020667 L158.090274,89.7540667 L155.107807,89.7540667 L155.104408,89.7247333 C155.31244,89.2340667 155.602732,88.8260667 155.975965,88.5014 C156.349878,88.1760667 156.734669,88.0140667 157.128977,88.0140667 C157.615064,88.0140667 157.936629,88.1654 158.095712,88.4694 L158.095712,88.4694 Z M157.088867,93.4614 C157.511048,93.3120667 157.870685,93.1254 158.167096,92.9014 L157.926432,92.1507333 C157.650416,92.3460667 157.345847,92.4994 157.012724,92.6107333 C156.679602,92.7220667 156.313167,92.7774 155.91546,92.7774 C155.369546,92.7774 155.002432,92.5814 154.814116,92.1900667 C154.625799,91.7980667 154.614242,91.2994 154.780803,90.6914 L154.807317,90.6620667 L159.001942,90.6620667 L159.212013,89.9414 C159.462875,89.0820667 159.44112,88.3947333 159.145388,87.8787333 C158.850337,87.3634 158.266353,87.1054 157.394116,87.1054 C156.64561,87.1054 155.910021,87.4054 155.185989,88.0047333 C154.463997,88.6040667 153.969752,89.3554 153.705973,90.2580667 L153.630511,90.5160667 C153.356535,91.4534 153.399365,92.2154 153.759681,92.8040667 C154.118637,93.3920667 154.749531,93.6854 155.648961,93.6854 C156.186716,93.6854 156.666685,93.6107333 157.088867,93.4614 L157.088867,93.4614 Z M145.146084,85.0314 L143.974037,85.0314 L143.57089,93.5627333 L144.622606,93.5627333 L148.097958,87.6447333 L148.471871,86.8774 L148.507222,86.8774 L148.438558,87.6447333 L148.422922,93.5627333 L149.474637,93.5627333 L154.066969,85.0314 L152.889483,85.0314 L149.962084,90.6094 L149.467839,91.7054 L149.431807,91.7054 L149.513388,90.6094 L149.537863,85.0314 L148.497705,85.0314 L145.271175,90.6094 L144.725262,91.6820667 L144.69127,91.6760667 L144.840835,90.6094 L145.146084,85.0314 Z M139.130843,87.1700667 C139.084614,87.1547333 139.022748,87.1400667 138.947286,87.1260667 C138.871143,87.1127333 138.789562,87.1054 138.701863,87.1054 C138.351744,87.1054 138.014543,87.1974 137.692977,87.3807333 C137.369373,87.5647333 137.069562,87.8207333 136.790147,88.1487333 L136.946511,87.2227333 L135.894795,87.2227333 L134.042226,93.5627333 L135.218353,93.5627333 L136.542685,89.0334 C136.73576,88.7707333 136.959428,88.5687333 137.214369,88.4240667 C137.469989,88.2794 137.752803,88.2074 138.063491,88.2074 L138.656993,88.2420667 L139.130843,87.1700667 Z M134.536471,84.4220667 L133.360345,84.4220667 L133.014985,85.5994 L134.191792,85.5994 L134.536471,84.4220667 Z M133.717262,87.2227333 L132.541135,87.2227333 L130.686527,93.5627333 L131.864013,93.5627333 L133.717262,87.2227333 Z M125.04112,92.4674 C124.90923,92.3040667 124.884756,92.0820667 124.967017,91.8014 C125.059475,91.4860667 125.281784,91.2114 125.634622,90.9774 C125.988139,90.7434 126.401483,90.6274 126.876693,90.6274 L128.196266,90.6274 L127.896456,91.6554 C127.710859,91.9320667 127.417167,92.1774 127.011301,92.3914 C126.605436,92.6054 126.190052,92.7127333 125.763792,92.7127333 C125.412993,92.7127333 125.173009,92.6314 125.04112,92.4674 L125.04112,92.4674 Z M128.682353,93.5627333 C128.677594,93.3594 128.69459,93.1527333 128.732661,92.9414 C128.770732,92.7307333 128.8224,92.5120667 128.889025,92.2854 L129.780977,89.2327333 C129.98221,88.5454 129.912867,88.0187333 129.573626,87.6534 C129.234384,87.2880667 128.697989,87.1054 127.96512,87.1054 C127.224092,87.1054 126.564645,87.2967333 125.98406,87.6800667 C125.404155,88.0627333 125.058116,88.4847333 124.947981,88.9454 L124.950021,88.9807333 L126.07244,88.9807333 C126.149942,88.7147333 126.335539,88.4874 126.627871,88.2980667 C126.920203,88.1087333 127.255365,88.0140667 127.634037,88.0140667 C128.056218,88.0140667 128.35195,88.1220667 128.519191,88.3387333 C128.687112,88.5560667 128.716345,88.8500667 128.60825,89.2207333 L128.424013,89.8480667 L127.14523,89.8480667 C126.288629,89.8480667 125.560519,90.0187333 124.960898,90.3607333 C124.361278,90.7020667 123.972408,91.1760667 123.795649,91.7814 C123.62229,92.3754 123.66172,92.8407333 123.915981,93.1787333 C124.169562,93.5167333 124.633214,93.6854 125.306258,93.6854 C125.712803,93.6854 126.122068,93.5834 126.534732,93.3780667 C126.946716,93.1727333 127.307033,92.9180667 127.616361,92.6134 C127.57557,92.7620667 127.545657,92.9087333 127.525262,93.0560667 C127.504187,93.2020667 127.485151,93.3714 127.470195,93.5627333 L128.682353,93.5627333 Z M122.939048,88.8807333 L118.971491,88.8807333 L119.830811,85.9394 L124.408187,85.9394 L124.673325,85.0314 L118.919823,85.0314 L116.425483,93.5627333 L117.60161,93.5627333 L118.704993,89.7894 L122.67255,89.7894 L122.939048,88.8807333 Z M109.870448,93.5627333 L111.474195,88.0780667 L112.818922,88.0780667 L113.068424,87.2227333 L111.725056,87.2227333 L111.958922,86.4200667 C112.071096,86.0374 112.239697,85.7447333 112.466084,85.5440667 C112.692471,85.3427333 112.976645,85.2420667 113.319286,85.2420667 C113.43078,85.2420667 113.536155,85.2480667 113.634052,85.2600667 C113.732629,85.2707333 113.81489,85.2854 113.881515,85.3007333 L114.281942,84.4220667 C114.126938,84.3820667 113.983491,84.3527333 113.851602,84.3314 C113.720392,84.3100667 113.587823,84.2980667 113.452535,84.2980667 C112.806685,84.2980667 112.249214,84.4834 111.781483,84.8527333 C111.312392,85.2220667 110.97927,85.7434 110.782795,86.4200667 L110.54689,87.2227333 L109.538005,87.2227333 L109.287823,88.0780667 L110.297388,88.0780667 L108.694321,93.5627333 L109.870448,93.5627333 Z M102.728029,90.3314 C102.922463,89.6680667 103.227712,89.1160667 103.646495,88.6754 C104.063238,88.2340667 104.554084,88.0140667 105.114954,88.0140667 C105.680582,88.0140667 106.044977,88.2340667 106.208819,88.6754 C106.373341,89.1160667 106.357705,89.6680667 106.16395,90.3314 L106.126558,90.4600667 C105.930084,91.1307333 105.622795,91.6854 105.204693,92.1220667 C104.78591,92.5587333 104.296424,92.7774 103.734875,92.7774 C103.165167,92.7774 102.799412,92.5587333 102.63761,92.1220667 C102.476487,91.6854 102.494163,91.1307333 102.690637,90.4600667 L102.728029,90.3314 Z M101.512471,90.4627333 C101.237815,91.4047333 101.271807,92.1767333 101.615127,92.7800667 C101.958448,93.3840667 102.575744,93.6854 103.468376,93.6854 C104.360329,93.6854 105.153705,93.3847333 105.847143,92.7834 C106.541262,92.1820667 107.025989,91.4080667 107.303365,90.4627333 L107.340076,90.3340667 C107.616092,89.3927333 107.58278,88.6194 107.23878,88.0140667 C106.896139,87.4080667 106.276803,87.1054 105.380772,87.1054 C104.492218,87.1054 103.700882,87.4094 103.004724,88.0167333 C102.309246,88.6240667 101.824519,89.3967333 101.551222,90.3340667 L101.512471,90.4627333 Z M98.001088,87.1700667 C97.9541789,87.1547333 97.8923133,87.1400667 97.8168508,87.1260667 C97.7407085,87.1127333 97.6591275,87.1054 97.5714279,87.1054 C97.2219891,87.1054 96.8847876,87.1974 96.5625425,87.3807333 C96.2396176,87.5647333 95.9391275,87.8207333 95.6597125,88.1487333 L95.8167559,87.2227333 L94.7650405,87.2227333 L92.9117915,93.5627333 L94.087918,93.5627333 L95.41225,89.0334 C95.6053251,88.7707333 95.8289931,88.5687333 96.0846137,88.4240667 C96.3395544,88.2794 96.6230484,88.2074 96.9337362,88.2074 L97.5265583,88.2420667 L98.001088,87.1700667 Z M91.1652777,88.4694 C91.3236808,88.7720667 91.3365978,89.1507333 91.2040287,89.6020667 L91.1598389,89.7540667 L88.1787322,89.7540667 L88.1746532,89.7247333 C88.3826848,89.2340667 88.6722974,88.8260667 89.0468903,88.5014 C89.4201235,88.1760667 89.804914,88.0140667 90.1992223,88.0140667 C90.6846295,88.0140667 91.0068745,88.1654 91.1652777,88.4694 L91.1652777,88.4694 Z M90.1604714,93.4614 C90.5812935,93.3120667 90.9409299,93.1254 91.2380208,92.9014 L90.9966769,92.1507333 C90.7206611,92.3460667 90.4167718,92.4994 90.0836492,92.6107333 C89.749167,92.7220667 89.3834121,92.7774 88.9850247,92.7774 C88.4397915,92.7774 88.0726769,92.5814 87.8843607,92.1900667 C87.6960445,91.7980667 87.6844872,91.2994 87.8503686,90.6914 L87.8768824,90.6620667 L92.0715069,90.6620667 L92.2822579,89.9414 C92.5337994,89.0820667 92.5120445,88.3947333 92.2163133,87.8787333 C91.9212619,87.3634 91.3365978,87.1054 90.4643607,87.1054 C89.7158548,87.1054 88.979586,87.4054 88.256914,88.0047333 C87.5342421,88.6040667 87.0399971,89.3554 86.7762184,90.2580667 L86.7007559,90.5160667 C86.4267797,91.4534 86.4696097,92.2154 86.8292461,92.8040667 C87.1895623,93.3920667 87.8190959,93.6854 88.7205662,93.6854 C89.2583212,93.6854 89.7382895,93.6107333 90.1604714,93.4614 L90.1604714,93.4614 Z M83.9514753,90.6320667 C83.7658785,91.2694 83.479665,91.7814 83.0962342,92.1680667 C82.7121235,92.5547333 82.2430326,92.7480667 81.6896413,92.7480667 C81.3157283,92.7480667 81.0308745,92.6594 80.8377994,92.4847333 C80.6440445,92.3087333 80.516914,92.0647333 80.457088,91.7520667 L81.2606611,89.0040667 C81.4938469,88.7107333 81.7603449,88.4774 82.0601552,88.3040667 C82.3599654,88.1300667 82.6910484,88.0434 83.0534042,88.0434 C83.6108745,88.0434 83.9589536,88.2720667 84.0976413,88.7314 C84.2363291,89.1907333 84.1996176,89.7834 83.9875069,90.5100667 L83.9514753,90.6320667 Z M85.1643133,90.5100667 C85.462084,89.4900667 85.4804397,88.6680667 85.2166611,88.0434 C84.9528824,87.4180667 84.4226057,87.1054 83.6265109,87.1054 C83.2240445,87.1054 82.8508113,87.1800667 82.5068113,87.3280667 C82.1621314,87.4767333 81.8473646,87.6914 81.5625109,87.9727333 L82.6006295,84.4220667 L81.4231433,84.4220667 L78.7513646,93.5627333 L79.7126611,93.5627333 L80.1008508,92.7247333 C80.2157441,93.0414 80.4067797,93.2807333 80.6739575,93.4427333 C80.9411354,93.6040667 81.2885346,93.6854 81.7141156,93.6854 C82.4986532,93.6854 83.1975306,93.4054 83.8093884,92.8447333 C84.4212461,92.2840667 84.8611038,91.5467333 85.1282816,90.6320667 L85.1643133,90.5100667 Z M69.5415465,87.2227333 L67.6876176,93.5627333 L68.8657836,93.5627333 L70.2377046,88.8694 C70.4382579,88.6074 70.6741631,88.4047333 70.9481393,88.2600667 C71.2207559,88.1154 71.5368824,88.0434 71.8951591,88.0434 C72.3173409,88.0434 72.600835,88.1807333 72.7449615,88.4560667 C72.8897678,88.7314 72.8754911,89.1660667 72.7014516,89.7600667 L71.5899101,93.5627333 L72.772835,93.5627333 L73.9496413,89.5374 L73.9632382,89.4900667 C74.1297994,89.0727333 74.3772619,88.7267333 74.7063054,88.4534 C75.034669,88.1800667 75.4004239,88.0434 75.8028903,88.0434 C76.2373093,88.0434 76.5255623,88.1727333 76.6690089,88.4327333 C76.8124555,88.6927333 76.7920603,89.1347333 76.6091828,89.7600667 L75.4976413,93.5627333 L76.6744476,93.5627333 L77.7832698,89.7707333 C78.0443291,88.8807333 78.0470484,88.2140667 77.7948271,87.7700667 C77.5419259,87.3267333 77.0871117,87.1054 76.4303844,87.1054 C75.9830484,87.1054 75.5622263,87.2107333 75.1658785,87.4220667 C74.7695306,87.6320667 74.4180524,87.9180667 74.1094042,88.2774 C74.0679338,87.8867333 73.9224476,87.5940667 73.6702263,87.3987333 C73.418005,87.2034 73.0774042,87.1054 72.6477441,87.1054 C72.2167243,87.1054 71.8156176,87.1887333 71.4423844,87.3540667 C71.0691512,87.5200667 70.7326295,87.7540667 70.433499,88.0547333 L70.5939417,87.2227333 L69.5415465,87.2227333 Z M65.9417836,88.4694 C66.1001868,88.7720667 66.1131038,89.1507333 65.9812144,89.6020667 L65.9370247,89.7540667 L62.9552382,89.7540667 L62.9518389,89.7247333 C63.1591907,89.2340667 63.4494832,88.8260667 63.8240761,88.5014 C64.1973093,88.1760667 64.58142,88.0140667 64.9757283,88.0140667 C65.4618152,88.0140667 65.7840603,88.1654 65.9417836,88.4694 L65.9417836,88.4694 Z M64.9362974,93.4614 C65.3584793,93.3120667 65.7181156,93.1254 66.0145267,92.9014 L65.7738627,92.1507333 C65.4978469,92.3460667 65.1925978,92.4994 64.8594753,92.6107333 C64.5263528,92.7220667 64.1605978,92.7774 63.7622105,92.7774 C63.2162974,92.7774 62.8491828,92.5814 62.6608666,92.1900667 C62.4725504,91.7980667 62.4616729,91.2994 62.6275544,90.6914 L62.6540682,90.6620667 L66.8486927,90.6620667 L67.0594437,89.9414 C67.3103054,89.0820667 67.2885504,88.3947333 66.9928192,87.8787333 C66.6977678,87.3634 66.1137836,87.1054 65.2415465,87.1054 C64.4923607,87.1054 63.7567718,87.4054 63.03342,88.0047333 C62.3100682,88.6040667 61.8171828,89.3554 61.5534042,90.2580667 L61.4779417,90.5160667 C61.2039654,91.4534 61.2467955,92.2154 61.6064318,92.8040667 C61.9660682,93.3920667 62.5962816,93.6854 63.4963923,93.6854 C64.0341472,93.6854 64.5141156,93.6107333 64.9362974,93.4614 L64.9362974,93.4614 Z M51.6413093,87.2227333 L49.7873804,93.5627333 L50.9641868,93.5627333 L52.3367876,88.8694 C52.5366611,88.6074 52.7732461,88.4047333 53.0465425,88.2600667 C53.3198389,88.1154 53.6359654,88.0434 53.9942421,88.0434 C54.4164239,88.0434 54.699918,88.1807333 54.8447243,88.4560667 C54.9888508,88.7314 54.9745741,89.1660667 54.8012144,89.7600667 L53.6889931,93.5627333 L54.871918,93.5627333 L56.0494042,89.5374 L56.063001,89.4900667 C56.2288824,89.0727333 56.4763449,88.7267333 56.8053884,88.4534 C57.1344318,88.1800667 57.4995069,88.0434 57.9019733,88.0434 C58.3363923,88.0434 58.6253251,88.1727333 58.7687718,88.4327333 C58.9108587,88.6927333 58.8911433,89.1347333 58.7082658,89.7600667 L57.5967243,93.5627333 L58.7735306,93.5627333 L59.8823528,89.7707333 C60.1427322,88.8807333 60.1461314,88.2140667 59.8939101,87.7700667 C59.6410089,87.3267333 59.1861947,87.1054 58.5287876,87.1054 C58.0828113,87.1054 57.6613093,87.2107333 57.2649615,87.4220667 C56.8692935,87.6320667 56.5164555,87.9180667 56.2084872,88.2774 C56.1670168,87.8867333 56.0208508,87.5940667 55.7693093,87.3987333 C55.5177678,87.2034 55.1764872,87.1054 54.7461472,87.1054 C54.3164872,87.1054 53.9147006,87.1887333 53.5414674,87.3540667 C53.1682342,87.5200667 52.8323923,87.7540667 52.5332619,88.0547333 L52.6923449,87.2227333 L51.6413093,87.2227333 Z M40.8576571,90.5100667 C41.0711275,89.7794 41.3790959,89.1854 41.7815623,88.7287333 C42.1840287,88.2707333 42.6680761,88.0434 43.2337046,88.0434 C43.5722658,88.0434 43.8394437,88.1200667 44.035918,88.2747333 C44.2317125,88.4287333 44.3663212,88.6367333 44.4417836,88.8987333 L43.5763449,91.8574 C43.3431591,92.1387333 43.0834595,92.3574 42.7992856,92.5140667 C42.5144318,92.6700667 42.1969457,92.7480667 41.8461472,92.7480667 C41.2845978,92.7480667 40.9263212,92.5560667 40.7719971,92.1707333 C40.6176729,91.7860667 40.6339891,91.2734 40.8216255,90.6320667 L40.8576571,90.5100667 Z M39.6441393,90.6320667 C39.3769615,91.5467333 39.3844397,92.2840667 39.6665741,92.8447333 C39.9487085,93.4054 40.4844239,93.6854 41.2730405,93.6854 C41.679586,93.6854 42.0582579,93.6094 42.4097362,93.4574 C42.7612144,93.3047333 43.085499,93.0800667 43.3832698,92.7834 L43.2928508,93.5627333 L44.2548271,93.5627333 L46.9279654,84.4220667 L45.7504793,84.4220667 L44.7313963,87.9080667 C44.6008666,87.6467333 44.4084714,87.4474 44.15625,87.3107333 C43.9033488,87.1740667 43.5872223,87.1054 43.2092303,87.1054 C42.4083765,87.1054 41.6945425,87.4180667 41.0677283,88.0434 C40.440914,88.6680667 39.9786216,89.4900667 39.680171,90.5100667 L39.6441393,90.6320667 Z M35.9172461,93.5627333 L36.9744002,93.5627333 L38.8283291,87.2227333 L37.6508429,87.2227333 L36.3149536,91.7934 C36.0865267,92.0980667 35.8111907,92.3334 35.4896255,92.4994 C35.1687401,92.6654 34.7989061,92.7480667 34.3801235,92.7480667 C33.9504635,92.7480667 33.6710484,92.6214 33.5418785,92.3674 C33.4127085,92.1134 33.4473804,91.6487333 33.6445346,90.9727333 L34.7411196,87.2227333 L33.5643133,87.2227333 L32.4711275,90.9607333 C32.197831,91.8947333 32.1944318,92.5820667 32.4595702,93.0234 C32.7247085,93.4647333 33.2101156,93.6854 33.9151117,93.6854 C34.3332144,93.6854 34.7288824,93.5940667 35.1014358,93.4094 C35.4733093,93.2267333 35.8105109,92.9647333 36.1130405,92.6254 L35.9172461,93.5627333 Z M26.2594121,90.3314 C26.453167,89.6680667 26.7590959,89.1160667 27.1765188,88.6754 C27.5946216,88.2340667 28.0841077,88.0140667 28.6456571,88.0140667 C29.2112856,88.0140667 29.5763607,88.2340667 29.7402026,88.6754 C29.9040445,89.1160667 29.889088,89.6680667 29.6946532,90.3314 L29.6572619,90.4600667 C29.4614674,91.1307333 29.153499,91.6854 28.7353963,92.1220667 C28.3166137,92.5587333 27.8264476,92.7774 27.2648982,92.7774 C26.6951907,92.7774 26.3301156,92.5587333 26.1689931,92.1220667 C26.0078706,91.6854 26.0255465,91.1307333 26.2213409,90.4600667 L26.2594121,90.3314 Z M25.0438548,90.4627333 C24.7685188,91.4047333 24.8025109,92.1767333 25.145831,92.7800667 C25.4891512,93.3840667 26.1071275,93.6854 26.9990801,93.6854 C27.8917125,93.6854 28.6844081,93.3847333 29.3785267,92.7834 C30.0719654,92.1820667 30.5566927,91.4080667 30.8333884,90.4627333 L30.8714595,90.3340667 C31.1467955,89.3927333 31.1128034,88.6194 30.7701631,88.0140667 C30.4275227,87.4080667 29.8075069,87.1054 28.9114753,87.1054 C28.022922,87.1054 27.2309061,87.4094 26.5354279,88.0167333 C25.8399496,88.6240667 25.3559022,89.3967333 25.0812461,90.3340667 L25.0438548,90.4627333 Z M25.0594911,87.1700667 C25.012582,87.1547333 24.9507164,87.1400667 24.8759338,87.1260667 C24.7997915,87.1127333 24.7182105,87.1054 24.6305109,87.1054 C24.2803923,87.1054 23.9431907,87.1974 23.6209457,87.3807333 C23.2980208,87.5647333 22.9975306,87.8207333 22.7181156,88.1487333 L22.8751591,87.2227333 L21.8234437,87.2227333 L19.9701947,93.5627333 L21.147001,93.5627333 L22.471333,89.0334 C22.6637283,88.7707333 22.8873963,88.5687333 23.142337,88.4240667 C23.3979575,88.2794 23.6807718,88.2074 23.9914595,88.2074 L24.5849615,88.2420667 L25.0594911,87.1700667 Z M17.8375306,90.6294 C17.6526137,91.2620667 17.3582421,91.7774 16.954416,92.1774 C16.5505899,92.5767333 16.0699417,92.7774 15.5124714,92.7774 C15.165752,92.7774 14.8944951,92.7040667 14.6980208,92.5580667 C14.5022263,92.4114 14.3682974,92.2080667 14.2975939,91.9467333 L15.1922658,88.8860667 C15.4159338,88.6247333 15.6695148,88.4187333 15.9523291,88.2680667 C16.2358231,88.1180667 16.5465109,88.0434 16.8850721,88.0434 C17.4466216,88.0434 17.8042184,88.2740667 17.9578627,88.7367333 C18.1115069,89.1987333 18.0829536,89.7887333 17.8735623,90.5067333 L17.8375306,90.6294 Z M19.0496887,90.5100667 C19.3488192,89.4867333 19.3671749,88.6634 19.1054358,88.0400667 C18.8430168,87.4174 18.3120603,87.1054 17.5112065,87.1054 C17.0931038,87.1054 16.7035544,87.1854 16.3418785,87.3460667 C15.9802026,87.5060667 15.6491196,87.7380667 15.3493093,88.0434 L15.4036967,87.2227333 L14.5015465,87.2227333 L11.9351433,96.0000667 L13.1119496,96.0000667 L14.0181789,92.9007333 C14.1527876,93.1620667 14.3513014,93.3587333 14.6137204,93.4894 C14.8761393,93.6200667 15.2065425,93.6854 15.6056097,93.6854 C16.3901472,93.6854 17.0869852,93.4054 17.6974832,92.8447333 C18.3073014,92.2840667 18.7457994,91.5467333 19.0129773,90.6320667 L19.0496887,90.5100667 Z M6.12317492,86.5140667 L6.15920654,86.5140667 L6.45697729,90.3987333 L3.52957808,90.3987333 L6.12317492,86.5140667 Z M6.69696148,93.5627333 L7.89824211,93.5627333 L7.08243183,85.0314 L6.07286662,85.0314 L0.213989145,93.5627333 L1.41526978,93.5627333 L2.88236859,91.3654 L6.527001,91.3654 L6.69696148,93.5627333 Z" id="Fill-10"></path>
        </g>
    </g>
</svg>