<?xml version="1.0" encoding="utf-8"?>
<!-- Generator: Adobe Illustrator 22.0.1, SVG Export Plug-In . SVG Version: 6.00 Build 0)  -->
<svg version="1.1" id="Layer_1" xmlns="http://www.w3.org/2000/svg" xmlns:xlink="http://www.w3.org/1999/xlink" x="0px" y="0px"
	 viewBox="0 0 96 96" style="enable-background:new 0 0 96 96;" xml:space="preserve">
<style type="text/css">
	.st0{fill:#888888;}
</style>
<title>organic-textiles</title>
<desc>Created with Sketch.</desc>
<g>
	<path class="st0" d="M22.1,80c1.6,1.3,2,3.1,0.7,4.8c-1.3,1.6-3.3,1.7-4.9,0.4c-0.5-0.4-1-0.9-1.4-1.5l0.7-0.8
		c0.2,0.5,0.6,1,1.1,1.3c1.1,0.9,2.4,0.7,3.3-0.4c0.8-1,0.9-2.2-0.2-3.1c-0.3-0.2-0.6-0.4-0.9-0.5l-0.9,1.1l0.7,0.5l-0.6,0.7
		l-1.7-1.3l1.9-2.5C20.8,79.2,21.5,79.5,22.1,80z"/>
	<path class="st0" d="M18.3,76.8l-4.8,4.3l-1-1.1l4-3.5l-1.9-2.1l0.9-0.8L18.3,76.8z"/>
	<path class="st0" d="M13.1,69.9c1.1,1.8,0.6,3.4-1.1,4.5c-1.7,1.1-3.4,0.8-4.5-0.9c-1.1-1.7-0.6-3.4,1.1-4.5
		C10.3,67.9,12,68.2,13.1,69.9z M8.3,72.9c0.7,1.1,2,0.7,2.9,0.2c0.9-0.6,1.8-1.6,1.1-2.7c-0.7-1.1-2-0.7-2.9-0.2
		C8.5,70.8,7.6,71.8,8.3,72.9z"/>
	<path class="st0" d="M9.5,63.1l0.9,2.2l-6,2.4l-1-2.5c-0.4-1-0.5-2.1,0.7-2.6c0.8-0.3,1.4,0,1.9,0.6c-0.2-0.8,0.1-1.6,0.9-1.9
		C8.3,60.8,9.1,62,9.5,63.1z M4.4,65.4l0.3,0.7l1.7-0.7l-0.3-0.6c-0.2-0.6-0.7-1.1-1.4-0.8C4.2,64.2,4.2,64.8,4.4,65.4z M7,64.6
		l0.2,0.6l1.9-0.7l-0.3-0.6c-0.2-0.6-0.7-1.3-1.5-1C6.6,63.1,6.7,63.9,7,64.6z"/>
	<path class="st0" d="M7.1,54.2l-1.5,0.9l0.5,2.7L7.8,58l0.3,1.4l-6.8-1.1l-0.4-1.8l5.9-3.7L7.1,54.2z M2,57.2l3.1,0.5l-0.4-2.1
		L2,57.2z"/>
	<path class="st0" d="M6.7,50.8l-6.5,0.2l0-1.4l5.3-0.1l-0.1-2.8l1.1,0L6.7,50.8z"/>
	<path class="st0" d="M8.1,37.4c-0.5,2-2.1,2.7-4,2.2c-1.9-0.5-2.9-2-2.4-3.9c0.5-2,2.1-2.7,4-2.2C7.6,33.9,8.6,35.4,8.1,37.4z
		 M2.6,35.9c-0.3,1.2,0.8,1.9,1.8,2.2c1,0.3,2.4,0.2,2.7-1c0.3-1.2-0.8-1.9-1.8-2.2C4.3,34.6,3,34.6,2.6,35.9z"/>
	<path class="st0" d="M11.2,28.9l-2-0.2c-0.7-0.1-0.9,0-1.2,0.6l-0.2,0.5l2.4,1.2l-0.6,1.3l-5.8-2.8L5,27.1c0.5-1,1.3-1.8,2.5-1.2
		c0.8,0.4,1,1.2,0.8,2c0.4-0.5,0.7-0.6,1.3-0.5l2.4,0.2L11.2,28.9z M5.6,28l-0.3,0.6L7,29.4l0.3-0.6c0.3-0.6,0.4-1.3-0.3-1.6
		C6.3,26.9,5.9,27.3,5.6,28z"/>
	<path class="st0" d="M14.9,23.3c-1.2,1.7-3.1,2.2-4.8,0.9C8.4,23,8.3,21,9.5,19.4c0.4-0.5,0.9-1.1,1.4-1.5l0.8,0.7
		c-0.5,0.3-0.9,0.7-1.3,1.1C9.6,20.9,9.8,22.2,11,23c1,0.8,2.3,0.8,3.1-0.3c0.2-0.3,0.4-0.6,0.5-0.9L13.4,21l-0.5,0.7l-0.8-0.6
		l1.3-1.7l2.5,1.8C15.7,22,15.3,22.7,14.9,23.3z"/>
	<path class="st0" d="M21.1,16.5l-1.5-0.8l-2,1.9l0.7,1.6l-1,1l-2.6-6.4l1.4-1.3l6.2,3L21.1,16.5z M15.9,13.8l1.2,2.9l1.6-1.5
		L15.9,13.8z"/>
	<path class="st0" d="M26.8,12.5L22,9.2l2.8,4.5l-1.1,0.7l-3.4-5.5l1.8-1.1l4.8,3.2l-2.8-4.5l1.1-0.7l3.4,5.5L26.8,12.5z"/>
	<path class="st0" d="M31.1,10.2l-2.5-6l1.3-0.6l2.5,6L31.1,10.2z"/>
	<path class="st0" d="M38,8c-2,0.5-3.7-0.2-4.3-2.3c-0.5-2,0.6-3.6,2.5-4.2c0.5-0.1,1.1-0.2,1.6-0.2l0.2,1.1c-0.4-0.1-0.9,0-1.4,0.1
		c-1.3,0.4-1.9,1.5-1.6,2.8c0.4,1.3,1.4,2,2.8,1.6c0.5-0.1,0.9-0.3,1.3-0.6l0.3,1C39.1,7.6,38.5,7.8,38,8z"/>
	<path class="st0" d="M49.6,1.4l-0.1,5.3l-1.4,0l0.1-5.3l-2,0l0-1.1l5.5,0.1l0,1.1L49.6,1.4z"/>
	<path class="st0" d="M53.4,7l1.2-6.4l4.2,0.8l-0.2,1l-2.8-0.5l-0.3,1.7L58.1,4l-0.2,1l-2.6-0.5l-0.3,1.8l2.9,0.5l-0.2,1L53.4,7z"/>
	<path class="st0" d="M63.7,9.8l-0.6-3l-2.5,1.9l-1.5-0.5l3.4-2.3l-0.9-3.6l1.5,0.6l0.6,2.7l2.2-1.7l1.4,0.5l-3.1,2.2l1,4L63.7,9.8z
		"/>
	<path class="st0" d="M71.6,7.8L69,12.4l-1.3-0.7l2.6-4.6l-1.8-1l0.6-1l4.8,2.7l-0.6,1L71.6,7.8z"/>
	<path class="st0" d="M72.3,14.6l3.9-5.2l1.1,0.9l-3.9,5.2L72.3,14.6z"/>
	<path class="st0" d="M75.7,17.4l4.6-4.6l1,1l-3.8,3.8l2,2l-0.8,0.8L75.7,17.4z"/>
	<path class="st0" d="M79.9,21.8l5.2-3.8l2.5,3.4L86.8,22l-1.7-2.3l-1.4,1l1.6,2.2l-0.8,0.6L83,21.3l-1.5,1.1l1.7,2.3l-0.8,0.6
		L79.9,21.8z"/>
	<path class="st0" d="M86.4,33.3c-0.2-0.6-0.4-1.3-0.4-2L87,31c-0.1,0.6,0.1,1.2,0.3,1.8c0.2,0.6,0.6,1.1,1.3,0.8
		c0.5-0.2,0.5-0.9,0.5-1.4l0-0.7c0-0.8,0.3-1.5,1.1-1.8c1.3-0.5,2.2,0.7,2.7,1.8c0.2,0.5,0.3,1,0.4,1.6l-1,0.3c0-0.5-0.1-1-0.3-1.5
		c-0.2-0.5-0.6-1.1-1.2-0.9c-0.4,0.2-0.4,0.8-0.5,1.2l0,0.7c0,0.9-0.2,1.7-1.2,2C87.8,35.5,86.8,34.5,86.4,33.3z"/>
	<path class="st0" d="M93.7,39.3l-5.2,1.1l-0.3-1.4l5.2-1.1l-0.4-2l1.1-0.2l1.1,5.4l-1.1,0.2L93.7,39.3z"/>
	<path class="st0" d="M89.2,48.5l1.6-0.6l-0.1-2.8l-1.6-0.5l0-1.4l6.6,2.3l0.1,1.9L89.2,50L89.2,48.5z M94.7,46.3l-3-1l0.1,2.2
		L94.7,46.3z"/>
	<path class="st0" d="M88.5,55.4l5.6-1.5L88.9,53l0.2-1.3l6.4,1l-0.3,2.1l-5.6,1.5l5.2,0.8l-0.2,1.3l-6.4-1L88.5,55.4z"/>
	<path class="st0" d="M86.7,62.1l0.8-2l6.1,2.3l-0.8,2.2c-0.7,2-2.2,2.7-4.2,1.9C86.4,65.7,85.9,64.1,86.7,62.1z M91.8,64l0.3-0.7
		l-4.2-1.6l-0.2,0.5c-0.5,1.4-0.1,2.3,1.3,2.9C90.2,65.6,91.3,65.3,91.8,64z"/>
	<path class="st0" d="M82.2,70.9l1.7,0.3l1.4-2.4l-1.1-1.3l0.7-1.2l4.3,5.5l-1,1.6l-6.8-1.2L82.2,70.9z M88,72.1l-2-2.5l-1.1,1.9
		L88,72.1z"/>
	<path class="st0" d="M78,76.2l1.8,0.7c0.6,0.2,0.9,0.3,1.3-0.3l0.3-0.4l-2-1.8l0.9-1.1l4.9,4.3l-1.7,2c-0.7,0.8-1.8,1.4-2.7,0.5
		c-0.7-0.6-0.6-1.4-0.2-2.2c-0.5,0.4-0.9,0.3-1.4,0.1L77,77.3L78,76.2z M83.2,78.6l0.5-0.5l-1.4-1.2l-0.4,0.5
		c-0.4,0.5-0.7,1.1-0.2,1.7C82.2,79.5,82.7,79.2,83.2,78.6z"/>
	<path class="st0" d="M73.8,80l1.7-1.3l4,5.1l-1.9,1.5c-1.6,1.3-3.3,1.2-4.6-0.5C71.7,83,72.2,81.3,73.8,80z M77.2,84.3l0.6-0.5
		L75,80.4l-0.4,0.3c-1.2,0.9-1.3,2-0.4,3.1C75,84.8,76.1,85.2,77.2,84.3z"/>
	<path class="st0" d="M36.8,94.2c-2-0.5-3.2-2-2.6-4.1c0.5-2,2.4-2.9,4.3-2.4c0.6,0.2,1.3,0.4,1.9,0.8l-0.3,1
		c-0.4-0.4-1-0.6-1.5-0.8c-1.4-0.3-2.5,0.3-2.9,1.7c-0.3,1.3,0.1,2.4,1.4,2.8c0.3,0.1,0.7,0.1,1,0.1l0.3-1.4l-0.8-0.2l0.2-0.9
		l2.1,0.5l-0.8,3C38.3,94.4,37.5,94.4,36.8,94.2z"/>
	<path class="st0" d="M44.8,95.4c-2.1-0.1-3.1-1.5-2.9-3.5c0.1-2,1.3-3.2,3.4-3.1c2.1,0.1,3.1,1.5,2.9,3.5
		C48.1,94.2,46.9,95.5,44.8,95.4z M45.2,89.7c-1.3-0.1-1.7,1.2-1.8,2.2c-0.1,1,0.3,2.3,1.5,2.4c1.3,0.1,1.7-1.1,1.8-2.2
		C46.8,91.1,46.5,89.8,45.2,89.7z"/>
	<path class="st0" d="M52.9,89.9l0.5,5.3L52,95.4l-0.5-5.3l-2,0.2l-0.1-1.1l5.4-0.5l0.1,1.1L52.9,89.9z"/>
	<path class="st0" d="M59.8,94.2c-0.6,0.2-1.3,0.3-1.9,0.2l-0.2-1.1c0.6,0.1,1.2,0.1,1.8-0.1c0.6-0.1,1.1-0.5,1-1.2
		c-0.1-0.5-0.8-0.5-1.3-0.6l-0.7-0.1c-0.8-0.1-1.5-0.4-1.7-1.2c-0.3-1.3,0.9-2.1,2-2.4c0.5-0.1,1-0.2,1.6-0.2l0.2,1
		c-0.5-0.1-1,0-1.5,0.1c-0.5,0.1-1.2,0.5-1,1.1c0.1,0.4,0.7,0.5,1.1,0.6l0.7,0.1c0.9,0.1,1.6,0.4,1.8,1.3C62.1,93,61,93.9,59.8,94.2
		z"/>
	<path class="st0" d="M27.2,88.3l0.6-1.2l1.3,0.6L28.6,89L27.2,88.3z"/>
	<path class="st0" d="M66.9,89l-0.6-1.2l1.3-0.6l0.6,1.2L66.9,89z"/>
	<g>
		<path class="st0" d="M47.9,11.7c-19.9,0-36,16.1-36,36c0,19.9,16.1,36,36,36c19.9,0,36-16.1,36-36C83.9,27.8,67.8,11.7,47.9,11.7z
			 M47.2,71.1H34.9V45.3l-8.1,8.1L18,44.7l20.3-20.3l8.8,8.8V71.1z M69.1,53.4L61,45.3v25.8H48.6V33.2l8.8-8.8l20.3,20.3L69.1,53.4z
			"/>
	</g>
</g>
</svg>
