<?xml version="1.0" encoding="UTF-8"?>
<svg width="265px" height="96px" viewBox="0 0 265 96" version="1.1" xmlns="http://www.w3.org/2000/svg" xmlns:xlink="http://www.w3.org/1999/xlink">
    <!-- Generator: Sketch 63.1 (92452) - https://sketch.com -->
    <title>peta-vegan</title>
    <desc>Created with Sketch.</desc>
    <g id="peta-vegan" stroke="none" stroke-width="1" fill="none" fill-rule="evenodd">
        <path d="M20.034356,0.0003 L19.9371308,0.479862534 C18.6513763,0.864305227 17.4816969,1.29729867 16.42214,1.78082453 C15.3635752,2.2584054 14.3516388,3.11052065 13.3893072,4.32924362 C12.3575289,5.61336148 11.7156438,7.17887554 11.4616676,9.03965743 C11.2057072,10.9034118 11.0430037,13.3705827 10.9795097,16.4490968 L10.9795097,31.2600487 C10.9795097,32.9930133 10.9140314,34.7249871 10.7890275,36.4559701 C10.7245414,37.8688961 10.5806877,39.3264095 10.3554822,40.8304919 C10.1302768,42.3395286 9.53700429,43.7346196 8.57268845,45.0167558 C7.92881913,45.916431 7.23832137,46.5743432 6.50119516,46.9885109 C5.76307687,47.4066418 4.9118598,47.7782037 3.94952815,48.0972515 C4.97336966,48.4797125 5.87419145,48.8988343 6.64504886,49.3476811 C7.41590628,49.7945462 8.18477951,50.5654132 8.9586132,51.6533464 C10.0479329,53.2594846 10.6550948,55.0083025 10.7890275,56.8958368 C10.9140314,58.7893162 10.9795097,60.6332539 10.9795097,62.4276501 C11.0430037,63.5185558 11.0757428,64.5936082 11.0757428,65.6518164 L11.0757428,79.6473139 C11.0757428,81.2475071 11.1064978,82.6624147 11.1739602,83.8801469 C11.2374542,85.0988698 11.3664265,86.1887847 11.5579008,87.1498914 C11.7483829,88.111989 12.0251773,88.976985 12.3763787,89.7498338 C12.7305564,90.5187191 13.1968408,91.2549071 13.7752319,91.9613701 C14.6701012,93.0483124 15.6175514,93.8350328 16.6146063,94.316577 C17.608685,94.7971303 18.7495937,95.199408 20.034356,95.5194466 L19.9371308,96 C18.4608942,95.8711919 17.0144204,95.6660897 15.6046542,95.3747852 C14.1879432,95.0884349 12.7761928,94.428541 11.3664265,93.404021 C11.0430037,93.1444231 10.6550948,92.8283478 10.2096444,92.4399418 C9.75923345,92.0545082 9.27707553,91.5115325 8.76614687,90.8050695 C8.18477951,89.907376 7.71948719,88.8808744 7.36729365,87.7275463 C7.0160922,86.5722365 6.77402115,85.4020643 6.64504886,84.2140571 C6.51607658,83.0280316 6.43770112,81.8449786 6.40694619,80.6579622 C6.37420707,79.4729275 6.35932565,78.3958935 6.35932565,77.4367684 L6.35932565,64.8323986 C6.35932565,61.1138073 6.2244008,58.1333856 5.9734009,55.8901427 C5.71347214,53.6439273 4.87912068,51.7494571 3.46935442,50.2126771 C2.89096333,49.6330406 2.34332717,49.2030197 1.83041433,48.9136968 C1.31750148,48.6253648 0.706371274,48.3836019 1.42108547e-14,48.1923713 L1.42108547e-14,47.711818 C1.15777426,47.3897977 2.08439051,47.0073367 2.79473017,46.5565082 C3.50010935,46.1056798 4.17274941,45.3060787 4.81463454,44.1527506 C5.52299,42.8072012 5.92478827,41.201063 6.01903724,39.3422628 C6.11527041,37.4824717 6.19761425,35.0767324 6.26309249,32.1290081 L6.26309249,17.601434 C6.26309249,16.8305669 6.29186323,16.0953698 6.35932565,15.3889069 C6.48432956,13.3359036 6.75913973,11.2997445 7.17581941,9.2794387 C7.59448329,7.26111457 8.66792952,5.38646102 10.4031028,3.65547807 C11.4944067,2.56556322 12.6988094,1.74416376 14.0133346,1.201188 C15.329844,0.658212237 17.3368511,0.252962079 20.034356,0.0003 Z M245.062869,0 C245.448794,0.0634132276 245.846624,0.112954812 246.267272,0.143670594 C246.685936,0.174386376 247.116505,0.224918792 247.565924,0.288332019 C247.888354,0.349763584 248.366544,0.450828415 249.014382,0.573691544 C249.654282,0.708444653 250.359662,0.928409286 251.129527,1.25142041 C251.899392,1.56947738 252.687115,2.00346166 253.490712,2.54643742 C254.292324,3.09337651 255.045324,3.81668364 255.755664,4.71140465 C256.33207,5.48425336 256.811252,6.31655197 257.197177,7.21424548 C257.585086,8.11292981 257.88569,9.10475233 258.115856,10.1926855 C258.339078,11.2885454 258.479955,12.5181675 258.544441,13.9003777 C258.608927,15.2796154 258.643651,16.8689094 258.643651,18.6613239 L258.643651,31.2597487 C258.643651,32.9927133 258.65754,34.5463374 258.692263,35.926566 C258.72401,37.3087762 258.820243,38.5423616 258.977986,39.6302948 C259.137714,40.7212005 259.380777,41.7159955 259.703208,42.6097257 C260.025638,43.5113825 260.471089,44.3773694 261.053448,45.2116496 C261.498899,45.7873229 261.966175,46.2520229 262.449325,46.604759 C262.930491,46.9574951 263.781708,47.3894977 265,47.9037393 L265,48.3833019 C264.034692,48.7073038 263.21919,49.0412141 262.542582,49.3969227 C261.869942,49.7456954 261.242938,50.3728919 260.666531,51.2705854 C260.213144,51.9126443 259.896666,52.5388499 259.703208,53.1462298 C259.509749,53.7575729 259.380777,54.1885847 259.318275,54.4442193 C259.187318,55.022865 259.076204,55.7422088 258.977986,56.6101773 C258.88473,57.4751734 258.820243,58.3599861 258.788496,59.2537162 C258.755757,60.1553731 258.739884,61.0164058 258.739884,61.8516769 L258.739884,79.3576911 C258.608927,82.9494559 258.194232,85.7545004 257.488853,87.775797 C256.777521,89.7941212 255.721932,91.4438559 254.307206,92.7299555 C252.831961,94.1399089 251.354732,95.0039142 249.876512,95.3279161 C248.399283,95.6459731 246.765303,95.8708919 244.965644,95.9997 L245.062869,95.5201375 C245.317838,95.4547426 245.719636,95.3417878 246.267272,95.1842455 C246.81094,95.0257125 247.406196,94.7968303 248.046097,94.51048 C248.689967,94.2211571 249.346733,93.8347328 250.023342,93.3571519 C250.695982,92.8746169 251.322985,92.2484113 251.899392,91.4765534 C252.799222,90.195408 253.36174,88.6407931 253.586945,86.8136995 C253.808182,84.985615 253.956004,82.5660041 254.021482,79.5509032 L254.021482,64.5447574 C254.021482,62.7503612 254.084976,60.9559651 254.213949,59.1576056 C254.339945,57.8754694 254.501656,56.5576632 254.694122,55.2131046 C254.885597,53.8675552 255.302276,52.6815297 255.945154,51.6530464 C256.84796,50.3084878 257.806323,49.3969227 258.836117,48.9133968 C259.861943,48.4338343 260.602045,48.1276673 261.053448,48.0008408 C260.152626,47.6788205 259.351014,47.311222 258.643651,46.8901185 C257.934303,46.4739692 257.229916,45.8200203 256.525529,44.9203451 C255.175288,43.2527754 254.420304,41.3761402 254.261569,39.293412 C254.099858,37.2116746 254.021482,35.172543 254.021482,33.1859255 C253.956004,32.1594239 253.925249,31.1636381 253.925249,30.204513 L253.925249,16.4487968 C253.925249,13.2434563 253.761554,10.7247621 253.441107,8.89568684 C253.120661,7.06859322 252.382542,5.48425336 251.22576,4.13374978 C250.326923,3.04482576 249.381457,2.2581054 248.384402,1.78052453 C247.389331,1.29699867 246.251398,0.864005227 244.965644,0.479562534 L245.062869,0 Z M44.6627103,46.5423546 L53.7392351,69.0312843 L62.7827181,46.5423546 L66.940998,46.5423546 L53.7392351,78.5442545 L40.5054316,46.5423546 L44.6627103,46.5423546 Z M198.464499,45.0889591 L221.306503,68.9938844 L221.306503,46.5419546 L225.103324,46.5419546 L225.103324,78.1838557 L202.257315,54.2779304 L202.257315,76.9348596 L198.464499,76.9348596 L198.464499,45.0889591 Z M128.49025,45.8982566 C133.206238,45.8982566 137.888183,48.0302499 140.874975,51.7822382 L138.213596,54.3192303 C136.03483,51.3392396 132.362166,49.3602457 128.645447,49.3602457 C121.822784,49.3602457 116.499024,54.8822285 116.499024,61.6952072 C116.499024,68.0621873 121.745686,74.1101684 128.32504,74.1101684 C133.044032,74.1101684 138.134496,70.0381811 138.293698,65.0831966 L130.420701,65.0831966 L130.420701,61.6162074 L142.490026,61.6162074 L142.490026,62.8262037 C142.490026,71.1671776 136.596543,77.5791576 128.084735,77.5791576 C119.565918,77.5791576 112.702203,70.2391805 112.702203,61.8192068 C112.702203,53.0712342 119.729125,45.8982566 128.49025,45.8982566 Z M97.9753037,46.5420546 L97.9753037,50.0060437 L85.4233659,50.0060437 L85.4233659,58.5120171 L97.6118422,58.5120171 L97.6118422,61.9780063 L85.4233659,61.9780063 L85.4233659,73.4679704 L97.9753037,73.4679704 L97.9753037,76.9349596 L81.63055,76.9349596 L81.63055,46.5420546 L97.9753037,46.5420546 Z M169.652515,45.2538586 L184.177959,76.9347596 L180.101783,76.9347596 L176.631377,69.3137834 L162.667646,69.3137834 L159.19724,76.9347596 L155.121064,76.9347596 L169.652515,45.2538586 Z M169.652515,53.5518327 L164.240644,65.8457942 L175.056377,65.8457942 L169.652515,53.5518327 Z M167.445613,19.2689398 C170.984106,19.2689398 173.315066,21.9719313 173.315066,25.4929203 C173.315066,28.9869094 171.063207,31.7539008 167.445613,31.7539008 C163.822012,31.7539008 161.574158,28.9869094 161.574158,25.4929203 C161.574158,21.9719313 163.901113,19.2689398 167.445613,19.2689398 Z M183.74521,19.5824388 L186.595829,27.5704138 L186.62787,27.5704138 L189.267221,19.5824388 L191.759386,19.5824388 L187.142523,31.7534008 L185.79281,31.7534008 L181.255048,19.5824388 L183.74521,19.5824388 Z M52.290796,22.2451305 C53.6074678,20.5721357 55.4888567,18.8131412 57.7647465,19.5571389 C58.1252042,19.6731385 58.4556237,19.9441377 58.6628869,20.2791366 C59.1565137,21.0441342 58.8311005,22.068131 58.4275882,22.7681288 C57.22406,24.5961231 55.0873469,24.7181228 53.2640318,25.3181209 L53.2640318,25.3181209 L52.4379829,25.5551201 C52.2227095,25.9731188 52.2227095,26.4841172 52.1185773,26.9451158 C52.0094387,28.163112 52.0554972,29.5961075 53.2780495,30.1331058 C54.3774455,30.3821051 55.327652,29.8031069 56.1006335,29.0731091 C56.4210403,28.7301102 56.6513328,28.3901113 56.9136659,28.0221124 C57.0198006,28.0141125 57.1089138,28.0891122 57.1990282,28.1361121 C57.1990282,28.3901113 56.9637294,28.5781107 56.8475819,28.80011 C55.6760945,30.3481052 54.0670514,32.2050994 51.8682595,31.6511011 C50.5305609,31.1281027 50.2121566,29.6641073 50.1540829,28.3511114 C50.1871249,26.0291187 51.0191814,24.0421249 52.290796,22.2451305 Z M206.402979,19.5824388 L206.402979,21.5944325 L202.577121,21.5944325 L202.577121,24.2064244 L206.2618,24.2064244 L206.2618,26.2224181 L202.577121,26.2224181 L202.577121,29.426408 L206.402979,29.426408 L206.402979,31.4404017 L200.265186,31.4404017 L200.265186,19.5824388 L206.402979,19.5824388 Z M116.240896,19.5821388 C118.730057,19.5821388 120.353118,20.5721357 120.353118,23.2641273 C120.353118,25.7771194 118.980375,27.0031156 116.558299,27.0031156 L115.40884,27.0031156 L115.40884,31.4401017 L113.095903,31.4401017 L113.095903,19.5821388 L116.240896,19.5821388 Z M132.434458,19.5821388 C134.919614,19.5821388 136.539671,20.5721357 136.539671,23.2641273 C136.539671,25.7771194 135.171934,27.0031156 132.747856,27.0031156 L131.596394,27.0031156 L131.596394,31.4401017 L129.284458,31.4401017 L129.284458,19.5821388 L132.434458,19.5821388 Z M100.005181,19.2689398 L104.507898,31.4399018 L102.031754,31.4399018 L101.1226,28.9379096 L96.9943581,28.9379096 L96.0181185,31.4399018 L93.5790215,31.4399018 L98.2058965,19.2689398 L100.005181,19.2689398 Z M148.60489,19.5817388 C150.955876,19.5817388 152.576934,20.6167356 152.576934,23.1497277 C152.576934,24.6617229 151.73887,26.1667182 150.148851,26.4397174 L153.506114,31.4397018 L150.703555,31.4397018 L147.817891,26.6567167 L147.787853,26.6567167 L147.787853,31.4397018 L145.471912,31.4397018 L145.471912,19.5817388 L148.60489,19.5817388 Z M219.133143,19.5819388 C222.563499,19.5819388 224.865422,22.1459308 224.865422,25.5279202 C224.865422,28.8589098 222.499418,31.4399018 219.116122,31.4399018 L215.823941,31.4399018 L215.823941,19.5819388 L219.133143,19.5819388 Z M68.0397932,19.4211393 L67.3439096,22.0011312 L64.7536206,22.0511311 L62.1312909,31.3961019 L59.2246002,31.3961019 L61.7648256,22.0321311 L59.3797972,22.0321311 L60.120738,19.4721391 L68.0397932,19.4211393 Z M46.8789243,19.3711395 C46.8789243,19.3711395 51.1893975,18.875141 50.6366957,23.1141278 C50.0629672,27.5031141 46.1209619,27.4621142 44.3306887,27.3071147 L44.3306887,27.3071147 L44.2996493,27.3031147 L43.1752215,31.349102 L40.5008257,31.349102 L43.7279233,19.3711395 Z M73.69197,19.3751395 L73.69197,31.3161021 L71.0776505,31.3261021 L71.0776505,29.3701082 L68.3942433,29.3701082 L67.4830863,31.3391021 L64.5013002,31.3391021 L70.2736296,19.4041394 L73.69197,19.3751395 Z M167.445613,21.5499327 C165.255833,21.5499327 163.96219,23.4809266 163.96219,25.3979206 C163.96219,27.2279149 164.879355,29.4759079 167.445613,29.4759079 C170.012873,29.4759079 170.925031,27.2279149 170.925031,25.3979206 C170.925031,23.4809266 169.633391,21.5499327 167.445613,21.5499327 Z M218.518363,21.5939325 L218.139882,21.5939325 L218.139882,29.425908 L218.518363,29.425908 C221.36698,29.425908 222.470381,27.851913 222.470381,25.5119203 C222.470381,22.9319283 221.145699,21.5939325 218.518363,21.5939325 Z M86.1650076,25.4928203 L86.1650076,27.3038147 L82.3301383,27.3038147 L82.3301383,25.4928203 L86.1650076,25.4928203 Z M98.9969008,22.7409289 L98.9638589,22.7409289 L97.6551972,27.0519155 L100.474777,27.0519155 L98.9969008,22.7409289 Z M71.0776505,23.5371264 L71.0666365,23.5831263 L69.4826252,27.0131156 L71.0776505,27.0131156 L71.0776505,23.5371264 Z M115.81836,21.5031328 L115.40884,21.5031328 L115.40884,25.0841216 L115.878436,25.0841216 C117.251179,25.0841216 117.986112,24.7881225 117.986112,23.2441274 C117.986112,21.7201321 117.107997,21.5031328 115.81836,21.5031328 Z M132.008918,21.5031328 L131.596394,21.5031328 L131.596394,25.0841216 L132.071998,25.0841216 C133.442738,25.0841216 134.178673,24.7881225 134.178673,23.2441274 C134.178673,21.7201321 133.296553,21.5031328 132.008918,21.5031328 Z M148.103253,21.4707329 L147.787853,21.4707329 L147.787853,25.0377218 L148.088234,25.0377218 C149.363854,25.0377218 150.257989,24.6617229 150.257989,23.2127275 C150.257989,21.754732 149.330812,21.4707329 148.103253,21.4707329 Z M47.6759363,21.9531314 C47.3154786,21.6621323 46.0118233,21.7901319 45.833597,21.8111318 L45.833597,21.8111318 L45.3369664,23.5831263 L44.9785113,24.9231221 C44.9785113,24.9231221 46.2661462,25.2201212 47.1702943,24.3731238 C47.7840736,23.7961256 48.073441,22.2661304 47.6759363,21.9531314 Z M56.5872514,19.8071381 C54.6568002,19.1431402 52.7734088,24.7881225 52.7734088,24.7881225 C52.7734088,24.7881225 52.1496167,25.1171215 54.6397786,24.315124 C57.1169239,23.5041265 58.5367267,20.473136 56.5872514,19.8071381 Z" id="peta-approved" fill="#888888"></path>
    </g>
</svg>